<svg width="26" height="26" viewBox="0 0 26 26" fill="none" xmlns="http://www.w3.org/2000/svg">
<path d="M1.68138 14.6666H20.298L12.1647 22.8C11.5147 23.45 11.5147 24.5166 12.1647 25.1666C12.8147 25.8166 13.8647 25.8166 14.5147 25.1666L25.498 14.1833C26.148 13.5333 26.148 12.4833 25.498 11.8333L14.5314 0.833301C14.22 0.521213 13.7972 0.345825 13.3564 0.345825C12.9155 0.345825 12.4928 0.521213 12.1814 0.833301C11.5314 1.4833 11.5314 2.5333 12.1814 3.1833L20.298 11.3333H1.68138C0.764709 11.3333 0.0147095 12.0833 0.0147095 13C0.0147095 13.9166 0.764709 14.6666 1.68138 14.6666Z" fill="#17CAFF"/>
</svg>
