<svg width="26" height="26" viewBox="0 0 26 26" fill="none" xmlns="http://www.w3.org/2000/svg">
<path d="M24.3189 11.3416H5.70227L13.8356 3.20827C14.4856 2.55827 14.4856 1.4916 13.8356 0.841602C13.5242 0.529514 13.1015 0.354126 12.6606 0.354126C12.2197 0.354126 11.797 0.529514 11.4856 0.841602L0.50227 11.8249C-0.147729 12.4749 -0.147729 13.5249 0.50227 14.1749L11.4856 25.1583C12.1356 25.8083 13.1856 25.8083 13.8356 25.1583C14.4856 24.5083 14.4856 23.4583 13.8356 22.8083L5.70227 14.6749H24.3189C25.2356 14.6749 25.9856 13.9249 25.9856 13.0083C25.9856 12.0916 25.2356 11.3416 24.3189 11.3416Z" fill="#6D7D8B"/>
</svg>
