<svg width="100" height="30" viewBox="0 0 100 30" fill="none" xmlns="http://www.w3.org/2000/svg">
<path d="M0.096 14.544V11.832H9.12V14.544H0.096ZM9.12 21.072V23.856C8.784 23.984 8.448 24.072 8.112 24.12C7.776 24.168 7.416 24.192 7.032 24.192C5.528 24.192 4.376 23.768 3.576 22.92C2.792 22.056 2.4 20.864 2.4 19.344V8.976L6.024 7.8V19.272C6.024 19.752 6.112 20.136 6.288 20.424C6.464 20.712 6.696 20.92 6.984 21.048C7.272 21.16 7.584 21.216 7.92 21.216C8.112 21.216 8.296 21.208 8.472 21.192C8.664 21.16 8.88 21.12 9.12 21.072ZM21.6836 22.704C21.0916 23.168 20.3716 23.536 19.5236 23.808C18.6756 24.064 17.8196 24.192 16.9556 24.192C15.5956 24.192 14.4196 23.936 13.4276 23.424C12.4516 22.912 11.6996 22.184 11.1716 21.24C10.6436 20.296 10.3796 19.176 10.3796 17.88C10.3796 16.632 10.6356 15.528 11.1476 14.568C11.6596 13.608 12.3556 12.864 13.2356 12.336C14.1316 11.792 15.1716 11.52 16.3556 11.52C17.4916 11.52 18.4756 11.776 19.3076 12.288C20.1396 12.784 20.7796 13.496 21.2276 14.424C21.6756 15.336 21.8996 16.424 21.8996 17.688V18.216H13.5716L13.6196 16.416H19.7396L18.8036 17.16C18.8196 16.136 18.6196 15.368 18.2036 14.856C17.8036 14.328 17.2196 14.064 16.4516 14.064C15.6196 14.064 14.9716 14.368 14.5076 14.976C14.0596 15.568 13.8356 16.44 13.8356 17.592C13.8356 18.952 14.0996 19.936 14.6276 20.544C15.1716 21.152 15.9956 21.456 17.0996 21.456C17.7396 21.456 18.3716 21.352 18.9956 21.144C19.6196 20.936 20.1956 20.64 20.7236 20.256L21.6836 22.704ZM28.9509 24.192C27.8949 24.192 26.9589 23.936 26.1429 23.424C25.3269 22.912 24.6949 22.184 24.2469 21.24C23.7989 20.296 23.5749 19.192 23.5749 17.928C23.5749 16.664 23.7989 15.552 24.2469 14.592C24.7109 13.616 25.3429 12.864 26.1429 12.336C26.9589 11.792 27.8949 11.52 28.9509 11.52C29.9269 11.52 30.7909 11.76 31.5429 12.24C32.2949 12.72 32.8069 13.368 33.0789 14.184L32.7909 14.376V11.832H36.3669V24H32.7909V21.504L33.0789 21.552C32.8069 22.384 32.2949 23.032 31.5429 23.496C30.7909 23.96 29.9269 24.192 28.9509 24.192ZM30.0069 21.432C30.8869 21.432 31.5669 21.128 32.0469 20.52C32.5429 19.912 32.7909 19.032 32.7909 17.88C32.7909 16.728 32.5429 15.848 32.0469 15.24C31.5669 14.616 30.8869 14.304 30.0069 14.304C29.1269 14.304 28.4309 14.624 27.9189 15.264C27.4229 15.904 27.1749 16.792 27.1749 17.928C27.1749 19.064 27.4149 19.936 27.8949 20.544C28.3909 21.136 29.0949 21.432 30.0069 21.432ZM39.2921 24V15.312C39.2921 14.736 39.2761 14.16 39.2441 13.584C39.2281 12.992 39.1801 12.408 39.1001 11.832H42.5081L42.7721 14.208L42.5081 14.112C42.8441 13.296 43.3561 12.664 44.0441 12.216C44.7481 11.752 45.5881 11.52 46.5641 11.52C47.6681 11.52 48.5401 11.808 49.1801 12.384C49.8361 12.944 50.2681 13.8 50.4761 14.952L49.9001 14.304C50.2521 13.472 50.8121 12.8 51.5801 12.288C52.3481 11.776 53.2201 11.52 54.1961 11.52C55.5881 11.52 56.6201 11.944 57.2921 12.792C57.9641 13.64 58.3001 14.92 58.3001 16.632V24H54.6761V16.752C54.6761 15.92 54.5401 15.312 54.2681 14.928C53.9961 14.544 53.5481 14.352 52.9241 14.352C52.2041 14.352 51.6361 14.616 51.2201 15.144C50.8041 15.656 50.5961 16.376 50.5961 17.304V24H46.9721V16.752C46.9721 15.92 46.8361 15.312 46.5641 14.928C46.2921 14.544 45.8521 14.352 45.2441 14.352C44.5081 14.352 43.9321 14.616 43.5161 15.144C43.1161 15.656 42.9161 16.376 42.9161 17.304V24H39.2921Z" fill="#1A234D"/>
<path d="M60.8713 20.136H64.8073V24H60.8713V20.136Z" fill="#4BD6FF"/>
<path d="M67.464 24V11.832H71.088V24H67.464ZM67.32 6.12H71.232V9.528H67.32V6.12ZM74.0499 24V15.312C74.0499 14.736 74.0339 14.16 74.0019 13.584C73.9859 12.992 73.9379 12.408 73.8579 11.832H77.2659L77.5299 14.208L77.2659 14.184C77.6819 13.32 78.2579 12.664 78.9939 12.216C79.7459 11.752 80.6099 11.52 81.5859 11.52C84.4499 11.52 85.8819 13.224 85.8819 16.632V24H82.2579V16.8C82.2579 15.936 82.0979 15.312 81.7779 14.928C81.4739 14.544 80.9859 14.352 80.3139 14.352C79.5139 14.352 78.8739 14.608 78.3939 15.12C77.9139 15.632 77.6739 16.32 77.6739 17.184V24H74.0499ZM94.5053 24.192C93.1933 24.192 92.0573 23.936 91.0973 23.424C90.1373 22.912 89.4013 22.192 88.8893 21.264C88.3933 20.32 88.1453 19.208 88.1453 17.928C88.1453 16.648 88.4173 15.528 88.9613 14.568C89.5053 13.608 90.2653 12.864 91.2413 12.336C92.2173 11.792 93.3613 11.52 94.6733 11.52C95.5373 11.52 96.3853 11.656 97.2173 11.928C98.0493 12.2 98.7213 12.568 99.2333 13.032L98.2733 15.552C97.7933 15.168 97.2653 14.872 96.6893 14.664C96.1133 14.44 95.5533 14.328 95.0093 14.328C94.0333 14.328 93.2653 14.624 92.7053 15.216C92.1453 15.808 91.8653 16.688 91.8653 17.856C91.8653 19.04 92.1373 19.928 92.6813 20.52C93.2413 21.112 94.0173 21.408 95.0093 21.408C95.5533 21.408 96.1133 21.304 96.6893 21.096C97.2653 20.888 97.7933 20.584 98.2733 20.184L99.2333 22.704C98.7053 23.168 98.0173 23.536 97.1693 23.808C96.3213 24.064 95.4333 24.192 94.5053 24.192Z" fill="#1A234D"/>
</svg>
