<svg width="12" height="12" viewBox="0 0 12 12" fill="none" xmlns="http://www.w3.org/2000/svg">
<path fill-rule="evenodd" clip-rule="evenodd" d="M5.70223 11.4045C8.85149 11.4045 11.4045 8.85149 11.4045 5.70223C11.4045 2.55298 8.85149 0 5.70223 0C2.55298 0 0 2.55298 0 5.70223C0 8.85149 2.55298 11.4045 5.70223 11.4045Z" fill="#17CAFF"/>
<path fill-rule="evenodd" clip-rule="evenodd" d="M5.46127 7.7625C5.19469 8.02907 4.76312 8.02907 4.49723 7.7625L3.05049 6.31644C2.7846 6.05055 2.7846 5.6183 3.05049 5.35241C3.31707 5.08583 3.74864 5.08583 4.01453 5.35241L4.97925 6.31644L7.38934 3.90635C7.65591 3.63978 8.08748 3.63978 8.35338 3.90635C8.61995 4.17225 8.61995 4.60381 8.35338 4.87039L5.46127 7.7625Z" fill="white"/>
</svg>
