<svg width="16" height="17" viewBox="0 0 16 17" fill="none" xmlns="http://www.w3.org/2000/svg">
<path fill-rule="evenodd" clip-rule="evenodd" d="M2.03794 8.12683L13.0671 13.2138L14.3175 1.86582L2.03794 8.12683ZM13.3277 14.0036C13.2843 14.0036 13.2412 13.994 13.2009 13.9758L1.18359 8.43303C1.07415 8.38253 1.00253 8.27097 1.00005 8.14728C0.997881 8.02358 1.06516 7.90947 1.17274 7.85449L14.5526 1.03316C14.654 0.981381 14.7752 0.99065 14.8683 1.05809C14.9613 1.12522 15.0109 1.23933 14.9982 1.35567L13.6355 13.7201C13.6244 13.8211 13.567 13.9113 13.4812 13.9614C13.4337 13.9896 13.3807 14.0036 13.3277 14.0036V14.0036Z" fill="#17CAFF"/>
<path d="M2.03794 8.12683L1.96981 7.9932L1.69446 8.13359L1.97512 8.26304L2.03794 8.12683ZM13.0671 13.2138L13.0043 13.35L13.1934 13.4373L13.2162 13.2302L13.0671 13.2138ZM14.3175 1.86582L14.4666 1.88225L14.4971 1.6059L14.2494 1.73219L14.3175 1.86582ZM13.2009 13.9758L13.1381 14.112L13.1391 14.1125L13.2009 13.9758ZM1.18359 8.43303L1.12074 8.56923L1.12077 8.56924L1.18359 8.43303ZM1.00005 8.14728L0.850074 8.14991L0.850081 8.15028L1.00005 8.14728ZM1.17274 7.85449L1.10461 7.72086L1.10448 7.72092L1.17274 7.85449ZM14.5526 1.03316L14.6208 1.1668L14.6209 1.16675L14.5526 1.03316ZM14.8683 1.05809L14.7802 1.17953L14.7805 1.17973L14.8683 1.05809ZM14.9982 1.35567L15.1473 1.3721L15.1473 1.37196L14.9982 1.35567ZM13.6355 13.7201L13.7846 13.7366L13.7846 13.7365L13.6355 13.7201ZM13.4812 13.9614L13.4055 13.8319L13.4046 13.8324L13.4812 13.9614ZM1.97512 8.26304L13.0043 13.35L13.13 13.0776L2.10077 7.99062L1.97512 8.26304ZM13.2162 13.2302L14.4666 1.88225L14.1684 1.84939L12.918 13.1974L13.2162 13.2302ZM14.2494 1.73219L1.96981 7.9932L2.10608 8.26046L14.3857 1.99945L14.2494 1.73219ZM13.3277 13.8536C13.3065 13.8536 13.2844 13.849 13.2627 13.8391L13.1391 14.1125C13.198 14.1391 13.2621 14.1536 13.3277 14.1536V13.8536ZM13.2637 13.8396L1.24642 8.29682L1.12077 8.56924L13.1381 14.112L13.2637 13.8396ZM1.24644 8.29683C1.19092 8.27121 1.15139 8.21254 1.15002 8.14427L0.850081 8.15028C0.853673 8.32941 0.957379 8.49384 1.12074 8.56923L1.24644 8.29683ZM1.15003 8.14464C1.14883 8.07643 1.18601 8.01616 1.241 7.98806L1.10448 7.72092C0.944309 7.80277 0.84693 7.97072 0.850074 8.14991L1.15003 8.14464ZM1.24087 7.98813L14.6208 1.1668L14.4845 0.899527L1.10461 7.72086L1.24087 7.98813ZM14.6209 1.16675C14.6719 1.14068 14.7327 1.14512 14.7802 1.17953L14.9563 0.936658C14.8177 0.836178 14.6361 0.82208 14.4844 0.899577L14.6209 1.16675ZM14.7805 1.17973C14.8284 1.21429 14.8561 1.27502 14.849 1.33938L15.1473 1.37196C15.1657 1.20363 15.0942 1.03615 14.956 0.93646L14.7805 1.17973ZM14.8491 1.33924L13.4865 13.7037L13.7846 13.7365L15.1473 1.3721L14.8491 1.33924ZM13.4865 13.7036C13.4803 13.7592 13.4489 13.8065 13.4055 13.8319L13.5568 14.0909C13.6851 14.016 13.7685 13.8831 13.7846 13.7366L13.4865 13.7036ZM13.4046 13.8324C13.3807 13.8466 13.3541 13.8536 13.3277 13.8536V14.1536C13.4073 14.1536 13.4868 14.1325 13.5577 14.0905L13.4046 13.8324Z" fill="#17CAFF"/>
<path fill-rule="evenodd" clip-rule="evenodd" d="M6.82933 16C6.80112 16 6.77259 15.9958 6.74438 15.9878C6.61013 15.9482 6.51836 15.8213 6.51929 15.6778L6.55805 10.5636C6.55867 10.4872 6.58595 10.4137 6.63463 10.3562L14.4519 1.11043C14.5647 0.977457 14.7607 0.963713 14.8896 1.07942C15.0186 1.19577 15.0319 1.39746 14.9194 1.53043L7.1775 10.687L7.14805 14.5281L8.85634 11.6414C8.94594 11.4906 9.13661 11.4429 9.28264 11.535C9.42867 11.6267 9.47486 11.8239 9.38557 11.9742L7.0941 15.8469C7.03674 15.9437 6.93536 16 6.82933 16" fill="#17CAFF"/>
<path d="M6.82933 16C6.80112 16 6.77259 15.9958 6.74438 15.9878C6.61013 15.9482 6.51836 15.8213 6.51929 15.6778L6.55805 10.5636C6.55867 10.4872 6.58595 10.4137 6.63463 10.3562L14.4519 1.11043C14.5647 0.977457 14.7607 0.963713 14.8896 1.07942C15.0186 1.19577 15.0319 1.39746 14.9194 1.53043L7.1775 10.687L7.14805 14.5281L8.85634 11.6414C8.94594 11.4906 9.13661 11.4429 9.28264 11.535C9.42867 11.6267 9.47486 11.8239 9.38557 11.9742L7.0941 15.8469C7.03674 15.9437 6.93536 16 6.82933 16" stroke="#17CAFF" stroke-width="0.3"/>
</svg>
