<svg width="74" height="70" viewBox="0 0 74 70" fill="none" xmlns="http://www.w3.org/2000/svg">
<path d="M58.7827 0H15.2174C6.8265 0 0 6.8265 0 15.2174C0 23.6077 6.82592 30.4339 15.216 30.4348H15.2167H15.2173H58.7826C67.1735 30.4348 73.9999 23.6083 73.9999 15.2174C73.9999 6.8265 67.1736 0 58.7827 0Z" fill="#3DE9F2"/>
<path d="M74 15.2177C74 23.6077 67.1738 30.4354 58.7823 30.4354H31.7174V0H58.7823C67.1738 0 74 6.82621 74 15.2177Z" fill="#00CEF2"/>
<path d="M58.7827 26.0987H15.2174C9.21734 26.0987 4.33594 21.2173 4.33594 15.2174C4.33594 9.21748 9.21734 4.33594 15.2174 4.33594H58.7827C64.7827 4.33594 69.6641 9.21734 69.6641 15.2174C69.6641 21.2175 64.7827 26.0987 58.7827 26.0987Z" fill="#70FFFF"/>
<path d="M69.6641 15.2177C69.6641 21.2172 64.7833 26.0995 58.7823 26.0995H31.7174V4.33594H58.7823C64.7833 4.33594 69.6641 9.21676 69.6641 15.2177Z" fill="#3DE9F2"/>
<path d="M56.6494 43.0429V59.6914L56.0155 60.4141H27.2871L26.2978 59.69L16.0838 51.1207C14.9608 50.1769 14.2627 48.7966 14.1702 47.334C14.0762 45.8699 14.5937 44.413 15.5895 43.3348C17.545 41.2174 20.8056 41.0107 23.0126 42.8636L26.2978 45.6198V18.5723C26.2978 15.5834 28.7288 13.1523 31.7177 13.1523C34.7066 13.1523 37.1377 15.5834 37.1377 18.5723V35.0589L50.8609 36.578C54.1605 36.9436 56.6494 39.723 56.6494 43.0429Z" fill="#FDDBCC"/>
<path d="M56.649 43.0429V59.6914L56.0146 60.4141H31.7174V13.1523C34.7063 13.1523 37.1373 15.5834 37.1373 18.5723V35.0589L50.8606 36.578C54.1602 36.9436 56.649 39.723 56.649 43.0429Z" fill="#FBCDBE"/>
<path d="M56.649 59.6914V67.3516C56.649 68.5483 55.6778 69.5195 54.4811 69.5195H28.4655C27.2687 69.5195 26.2975 68.5483 26.2975 67.3516V59.6914H56.649Z" fill="#00347B"/>
<path d="M56.649 59.6914V67.3516C56.649 68.5483 55.6778 69.5195 54.4811 69.5195H31.7174V59.6914H56.649Z" fill="#002860"/>
<path d="M60.1984 9.30693C59.3519 8.46027 57.9791 8.46027 57.1325 9.30693L49.9935 16.4458L47.1904 13.6429C46.3439 12.7962 44.9712 12.7962 44.1245 13.6429C43.2778 14.4895 43.2778 15.8621 44.1245 16.7088L48.4604 21.0448C49.307 21.8914 50.6797 21.8916 51.5264 21.0448L60.1983 12.3729C61.0451 11.5262 61.0451 10.1535 60.1984 9.30693Z" fill="#00CEF2"/>
</svg>
