<svg width="74" height="73" viewBox="0 0 74 73" fill="none" xmlns="http://www.w3.org/2000/svg">
<path fill-rule="evenodd" clip-rule="evenodd" d="M47.5165 1.71223L46.7053 5.86794L52.6027 10.1526L60.0448 8.45389L60.8518 4.29818C60.9338 3.8802 60.6551 3.46626 60.2373 3.38836L48.4259 1.09739C48.0082 1.01559 47.5985 1.29425 47.5165 1.71223Z" fill="#C7C5CA"/>
<path fill-rule="evenodd" clip-rule="evenodd" d="M42.1649 5.02895C39.4569 4.43478 36.7202 5.45517 35.8558 8.13536C36.335 8.56563 36.9373 40.1051 36.9373 40.1051L66.9871 34.0476L69.2444 14.8439C69.5925 11.9096 67.3844 9.84415 64.5782 9.37298C63.8613 9.21732 62.0341 8.84848 60.0431 8.45506C57.29 7.90584 54.2257 7.31167 53.3776 7.15601C52.5337 6.98388 49.4651 6.38971 46.704 5.86925C44.7129 5.49203 42.8858 5.1518 42.1649 5.02895Z" fill="#ECEAED"/>
<path fill-rule="evenodd" clip-rule="evenodd" d="M36.9384 9.88099C36.9384 9.1884 36.6351 8.56547 36.1599 8.1352C35.7421 7.75812 35.189 7.52875 34.5909 7.52875H32.903H31.2152C29.9247 7.52875 28.8677 8.58599 28.8677 9.88099V12.2292L32.903 13.5859L36.9384 12.2292V9.88099Z" fill="#C7C5CA"/>
<path fill-rule="evenodd" clip-rule="evenodd" d="M36.9987 71.3241L41.0177 54.8481L36.9987 34.0476L4.29016 44.8749V70.6397C4.29016 71.0126 4.59743 71.3241 4.97437 71.3241H36.9987Z" fill="#4FDAE1"/>
<path fill-rule="evenodd" clip-rule="evenodd" d="M40.5473 34.0476V16.1184V13.7824C40.5473 12.9259 39.8468 12.2293 38.9946 12.2293H36.6348H28.5683H26.8108C25.9586 12.2293 25.2581 12.9259 25.2581 13.7824V34.0476H35.4877H36.9993H40.5473Z" fill="#FFE07D"/>
<path fill-rule="evenodd" clip-rule="evenodd" d="M40.5468 13.7824C40.5468 12.9259 39.8462 12.2293 38.9941 12.2293H36.9375H36.6343H35.5077C36.3598 12.2293 37.0604 12.9259 37.0604 13.7824V28.4742V34.0476H40.5468V13.7824Z" fill="#FFD064"/>
<path fill-rule="evenodd" clip-rule="evenodd" d="M27.5276 39.8834C32.5462 37.4039 35.8236 30.8347 33.0377 25.1876L31.0221 21.1018C24.0658 23.3886 22.3861 20.7247 18.9284 22.4459C15.4626 24.1426 16.5482 27.0973 10.5014 31.2282L12.517 35.314C15.3029 40.9611 22.5091 42.3586 27.5276 39.8834Z" fill="#CCF49E"/>
<path fill-rule="evenodd" clip-rule="evenodd" d="M31.0221 21.1017C24.0658 23.3885 22.3861 20.7246 18.9284 22.4458C15.4626 24.1425 16.5482 27.0971 10.5014 31.2281L12.517 35.3139C12.7629 35.8098 13.0374 36.2688 13.3446 36.6991C19.498 32.4944 18.3918 29.1135 21.9192 27.3882C25.4384 25.6384 26.4584 28.7201 33.5377 26.3964C33.4025 25.9907 33.2344 25.585 33.0379 25.1874L31.0221 21.1017Z" fill="#ECEAED"/>
<path fill-rule="evenodd" clip-rule="evenodd" d="M33.0382 25.1876L31.0225 21.1018C29.4821 21.6059 28.1998 21.8723 27.102 21.9952L29.1176 26.0809C29.3101 26.4703 29.47 26.8637 29.6051 27.2571C30.6784 27.1629 31.9566 26.9128 33.538 26.3966C33.4027 25.9907 33.2347 25.585 33.0382 25.1876Z" fill="#DAD8DB"/>
<path fill-rule="evenodd" clip-rule="evenodd" d="M33.3815 33.2731C34.1763 31.1051 34.3237 28.7037 33.5372 26.3964C31.9558 26.9128 30.6776 27.1627 29.6043 27.257C29.6084 27.2692 29.6126 27.2775 29.6166 27.2856C30.3868 29.5518 30.2598 31.9083 29.506 34.0475H33.0702C33.1848 33.7935 33.2873 33.5354 33.3815 33.2731Z" fill="#B3E59E"/>
<path fill-rule="evenodd" clip-rule="evenodd" d="M25.2577 34.0476H16.4825H11.894H7.01479C6.96565 34.0476 6.91651 34.0517 6.86737 34.0599C6.53148 34.1255 6.16278 34.3959 5.99888 34.7197L4.29052 38.076L1.1646 44.2028C0.980177 44.5716 1.12774 44.8749 1.49644 44.8749H4.29038H30.8129C31.1816 44.8749 31.6363 44.5716 31.8247 44.2028L34.9465 38.0761L36.4049 35.2115L36.999 34.0476H35.4873H33.0702H25.2577Z" fill="#FFDECF"/>
<path fill-rule="evenodd" clip-rule="evenodd" d="M69.7074 44.8749L36.9988 34.0476V71.3241H69.0233C69.4002 71.3241 69.7075 71.0126 69.7075 70.6397V44.8749H69.7074Z" fill="#4FDAE1"/>
<path fill-rule="evenodd" clip-rule="evenodd" d="M60.4446 34.0476H40.5466H36.9988L42.173 44.2028C42.3615 44.5716 42.8204 44.8749 43.1891 44.8749H69.7075H72.5014C72.8701 44.8749 73.0218 44.5716 72.8333 44.2028L67.9991 34.7198C67.8107 34.3469 67.356 34.0478 66.9873 34.0478H60.4446V34.0476Z" fill="#FFDECF"/>
<path fill-rule="evenodd" clip-rule="evenodd" d="M60.8515 4.29817C60.9335 3.88019 60.6548 3.46625 60.237 3.38835L56.5333 2.66699C56.8815 2.79808 57.0946 3.16693 57.0209 3.54401L56.2178 7.69971C57.3855 7.92923 58.7497 8.1956 60.0443 8.45373L60.8515 4.29817Z" fill="#B6B1B7"/>
<path fill-rule="evenodd" clip-rule="evenodd" d="M69.2459 14.843C69.5941 11.9086 67.3859 9.84311 64.5795 9.37179C63.8625 9.21613 62.0354 8.84729 60.0443 8.45373C58.7497 8.19559 57.3854 7.92908 56.2178 7.69971C58.2049 8.09312 60.0362 8.46197 60.749 8.61777C63.5554 9.09313 65.7186 11.1505 65.4196 14.093L63.3996 34.0476H66.9884L69.2459 14.843Z" fill="#DAD8DB"/>
<path fill-rule="evenodd" clip-rule="evenodd" d="M36.938 12.2293V9.88099C36.938 9.1884 36.6347 8.56547 36.1595 8.1352C36.0816 8.06958 36.0039 8.00411 35.9219 7.94673C35.5409 7.68441 35.082 7.52875 34.5905 7.52875H32.9027H32.0751C33.3656 7.52875 34.4226 8.58599 34.4226 9.88099V12.2292H35.5081H36.6347H36.938V12.2293Z" fill="#B6B1B7"/>
<path fill-rule="evenodd" clip-rule="evenodd" d="M4.29016 50.6573H32.2547C32.6233 50.6573 33.0945 50.3622 33.2707 49.9852L36.4047 43.1619L36.9987 41.998V34.0476L36.4047 35.2115L34.9463 38.0761L31.8245 44.2028C31.6361 44.5716 31.1814 44.8749 30.8127 44.8749H4.29016V50.6573Z" fill="#FCB788"/>
<path fill-rule="evenodd" clip-rule="evenodd" d="M41.7429 50.6573H69.7074V44.8749H43.1891C42.8204 44.8749 42.3615 44.5716 42.173 44.2028L36.9988 34.0476V41.998L40.7309 49.9852C40.903 50.3622 41.3742 50.6573 41.7429 50.6573Z" fill="#DB9975"/>
<path fill-rule="evenodd" clip-rule="evenodd" d="M31.8252 44.2028L34.947 38.0761L36.4054 35.2115L36.9995 34.0476H35.4878H33.0707H30.8051L27.9374 39.6702L25.6267 44.2027C25.4383 44.5715 24.9836 44.8747 24.6149 44.8747H30.8132C31.1821 44.8749 31.6368 44.5715 31.8252 44.2028Z" fill="#FFCBBE"/>
<path fill-rule="evenodd" clip-rule="evenodd" d="M69.7097 44.8752H72.5037C72.8724 44.8752 73.024 44.5719 72.8356 44.2031L68.0012 34.7197C67.8127 34.3468 67.358 34.0476 66.9893 34.0476H63.4004H61.0488C61.4175 34.0476 61.8723 34.3468 62.0608 34.7197L62.4746 35.527L66.8952 44.2031C67.0837 44.5719 66.9321 44.8752 66.5634 44.8752H69.7097Z" fill="#FFCBBE"/>
<path d="M73.7994 43.711L68.9664 34.23C68.7866 33.8746 68.4987 33.5675 68.162 33.3443L70.3217 14.9711C70.7137 11.6696 68.4374 8.93314 64.7846 8.30862C64.1819 8.17768 62.8569 7.90885 61.3136 7.601L61.9143 4.50817C62.0103 4.01908 61.9081 3.52131 61.6265 3.10651C61.3459 2.693 60.9225 2.41507 60.4425 2.32561L48.634 0.0350748C48.1461 -0.0606049 47.6504 0.0410006 47.2367 0.321102C46.8257 0.599469 46.547 1.01991 46.4519 1.50582L45.8472 4.60385C44.3058 4.31349 42.9807 4.06808 42.3718 3.9643C39.4475 3.33256 36.7426 4.37708 35.4044 6.54346C35.1435 6.47972 34.8712 6.44504 34.591 6.44504H33.9868V2.6034C33.9868 2.00359 33.5012 1.51941 32.9028 1.51941H28.0886C27.9022 1.51941 27.7186 1.56711 27.5568 1.65816L25.1924 2.99074C24.6721 3.28414 24.4871 3.94465 24.7805 4.4664C25.0753 4.98816 25.7358 5.17316 26.2576 4.87976L28.3735 3.68738H31.819V6.44489H31.2148C29.3231 6.44489 27.7838 7.9856 27.7838 9.8817V11.1449H26.8111C25.3571 11.1449 24.1736 12.3286 24.1736 13.7825V20.9422C23.8773 20.9191 23.5897 20.8902 23.3093 20.8613C21.7599 20.7038 20.2959 20.5535 18.4517 21.4727C16.5975 22.3803 15.8243 23.6318 15.0062 24.9586C14.1766 26.3013 13.2487 27.8043 10.906 29.5994C10.153 28.1093 8.95342 27.2061 7.60364 27.1179C6.4763 27.0457 5.42715 27.5616 4.79844 28.5025C4.03965 29.64 4.03531 31.1632 4.78398 32.6808C4.96465 33.0479 5.15832 33.4049 5.36644 33.7489C5.23348 33.8948 5.12074 34.0553 5.03402 34.2273L0.19526 43.7182C-0.072123 44.253 -0.0648964 44.821 0.21694 45.2748C0.481432 45.7026 0.95983 45.9584 1.49604 45.9584H3.20715V57.7546C3.20715 58.3545 3.69277 58.8386 4.29113 58.8386C4.88949 58.8386 5.37512 58.3545 5.37512 57.7546V45.9584H30.8132C31.585 45.9584 32.4175 45.428 32.7918 44.6952L35.915 38.5631V70.2403H5.37512V62.764C5.37512 62.1642 4.88949 61.68 4.29113 61.68C3.69277 61.68 3.20715 62.1642 3.20715 62.764V70.6392C3.20715 71.6148 4.00062 72.4082 4.97476 72.4082H69.0244C69.9985 72.4082 70.792 71.6148 70.792 70.6392V45.9583H72.5016C73.0422 45.9583 73.522 45.701 73.7865 45.2689C74.0668 44.8109 74.0711 44.2429 73.7994 43.711ZM48.5213 2.22024L59.7287 4.39399L59.188 7.17795C56.7769 6.70187 50.2671 5.44213 47.9776 5.00623L48.5213 2.22024ZM41.9334 6.08747C41.9502 6.09108 49.1506 7.43421 51.901 7.9697L46.9417 28.6472C46.8021 29.2294 47.1608 29.8144 47.743 29.9541C47.828 29.9744 47.913 29.9843 47.9967 29.9843C48.4865 29.9843 48.9306 29.65 49.0499 29.1528L54.0308 8.38522C56.598 8.88501 64.382 10.4393 64.3994 10.4422C66.4867 10.7925 68.4617 12.2498 68.169 14.717L66.0239 32.9642H61.6563L63.2028 18.649C63.2603 18.0964 62.8775 17.5738 62.3311 17.4683L57.4479 16.5216C56.8589 16.4069 56.2913 16.7919 56.1773 17.3794C56.0634 17.9671 56.4474 18.5359 57.0351 18.6498L60.9393 19.4067L59.4739 32.9642H41.6308V15.6648L44.5609 16.2318C44.6304 16.2453 44.6998 16.2518 44.768 16.2518C45.2769 16.2518 45.7309 15.8917 45.831 15.3736C45.9448 14.7859 45.5604 14.2172 44.9728 14.1035L41.6079 13.4523C41.4448 12.1539 40.3367 11.1449 38.9948 11.1449H38.0221V9.8817C38.0221 9.05209 37.7274 8.29056 37.2376 7.69624C38.2014 6.09195 40.2135 5.70995 41.9334 6.08747ZM29.9516 9.8817C29.9516 9.18217 30.5182 8.61272 31.2148 8.61272H34.591C34.8475 8.61272 35.086 8.69033 35.2854 8.82287C35.2935 8.82879 35.3019 8.83414 35.3101 8.83992C35.6384 9.06929 35.854 9.45056 35.854 9.8817V11.1449H29.9515V9.8817H29.9516ZM16.8519 26.0961C17.6107 24.8647 18.1122 24.0526 19.4114 23.4166C20.7006 22.7749 21.6515 22.8717 23.0896 23.0177C24.8384 23.1969 26.9831 23.4152 30.459 22.4107L32.0661 25.6668C32.0719 25.6784 32.0763 25.69 32.082 25.7015C29.1641 26.4921 27.5511 26.2117 26.1103 25.9588C24.6838 25.7087 23.3354 25.4732 21.4421 26.4155C19.5532 27.3419 18.7698 28.6917 17.9417 30.1211C17.4445 30.9782 16.8866 31.9379 15.9977 32.9639H12.5681L11.8831 31.5764C14.7952 29.4288 15.9284 27.5934 16.8519 26.0961ZM31.2495 19.2297C30.8405 18.4015 30.7943 17.6456 31.1223 17.1558C31.3261 16.8523 31.6513 16.6919 32.017 16.715C32.6038 16.754 33.1732 17.2498 33.5823 18.0779C34.9452 20.8398 35.0868 23.5136 34.6027 26.1555C34.4408 25.6641 34.2428 25.1813 34.0101 24.7087L31.2495 19.2297ZM32.3422 32.9641H18.7308C19.1687 32.3267 19.5127 31.7341 19.8162 31.2095C20.5895 29.8769 21.0982 28.9983 22.4018 28.3594C23.6635 27.7322 24.4438 27.868 25.736 28.095C27.2637 28.3623 29.3043 28.7179 32.7859 27.7567C33.1386 29.4433 32.9911 31.2254 32.3422 32.9641ZM6.60204 29.7063C6.79716 29.4129 7.11224 29.2583 7.46345 29.2814C8.03435 29.3175 8.59079 29.8032 8.98825 30.6082L10.1503 32.9639H7.43165C7.17872 32.5722 6.94169 32.1574 6.72923 31.7238C6.33032 30.9175 6.28407 30.1818 6.60204 29.7063ZM30.8622 43.7052C30.8463 43.7312 30.8196 43.7843 30.7596 43.7905H2.59144L6.96337 35.2143C6.97927 35.1883 7.00528 35.1348 7.11657 35.1319H35.2312L30.8622 43.7052ZM34.6892 32.9641C36.3817 28.9332 38.5076 23.1609 35.5261 17.1182C34.7673 15.579 33.5404 14.6426 32.1586 14.5515C31.0168 14.4764 29.9561 14.9996 29.3202 15.9506C28.5513 17.1025 28.5455 18.6459 29.3043 20.1895L29.4315 20.4453C28.229 20.7662 27.2232 20.918 26.3415 20.9743V13.7827C26.3415 13.5284 26.5569 13.313 26.8113 13.313H38.9948C39.2492 13.313 39.4631 13.5284 39.4631 13.7827V32.9642H34.6892V32.9641ZM58.8974 43.7861C58.8974 43.7861 58.8974 43.7861 58.8959 43.7861C58.2976 43.7861 57.8134 44.2718 57.8119 44.8701C57.8119 45.4685 58.2976 45.9541 58.8959 45.9541L68.624 45.9584V70.2403H38.0827V38.5629L41.2088 44.6951C41.5816 45.4279 42.4156 45.9583 43.1903 45.9583L53.8909 45.954C54.4893 45.954 54.9749 45.4683 54.9749 44.87C54.9735 44.2716 54.4893 43.786 53.8909 43.786C53.8895 43.786 53.8895 43.786 53.8895 43.786L43.2423 43.7903C43.1809 43.7734 43.1527 43.7311 43.1397 43.7108L38.7678 35.1317H66.9359C66.9807 35.1317 67.0139 35.1476 67.0342 35.2112L71.4075 43.7903L58.8974 43.7861Z" fill="black"/>
</svg>
