<svg width="16" height="12" viewBox="0 0 16 12" fill="none" xmlns="http://www.w3.org/2000/svg">
<path d="M15.1886 0.0378418H0.811005C0.67544 0.0380007 0.545476 0.0919377 0.449636 0.187815C0.353797 0.283693 0.299911 0.413677 0.299805 0.549242V1.57804C0.299805 1.62544 0.351205 1.67984 0.393205 1.70184L7.9504 6.01844C7.96976 6.0295 7.99171 6.03523 8.014 6.03504C8.03679 6.0351 8.05918 6.02903 8.0788 6.01744L15.4076 1.70604C15.4488 1.68304 15.558 1.62224 15.599 1.59424C15.6486 1.56044 15.6998 1.52984 15.6998 1.46924V0.549042C15.6996 0.413512 15.6457 0.283579 15.5499 0.187745C15.4541 0.0919103 15.3241 0.0380006 15.1886 0.0378418Z" fill="#333333"/>
<path d="M15.6365 3.12922C15.6169 3.118 15.5946 3.11217 15.5719 3.11231C15.5493 3.11245 15.5271 3.11856 15.5075 3.13002L11.3601 5.57022C11.3436 5.57985 11.3295 5.59308 11.3187 5.60892C11.308 5.62477 11.301 5.64282 11.2982 5.66174C11.2954 5.68067 11.297 5.69997 11.3027 5.71823C11.3083 5.73649 11.3181 5.75324 11.3311 5.76722L15.4791 10.2386C15.491 10.2515 15.5055 10.2618 15.5215 10.2688C15.5376 10.2759 15.555 10.2795 15.5725 10.2794C15.6064 10.2794 15.6389 10.2659 15.6628 10.2419C15.6868 10.218 15.7003 10.1855 15.7003 10.1516V3.24022C15.7004 3.21774 15.6946 3.19563 15.6834 3.17614C15.6722 3.15665 15.656 3.14046 15.6365 3.12922Z" fill="#333333"/>
<path d="M10.1648 6.38968C10.1451 6.36824 10.1186 6.3542 10.0898 6.3499C10.061 6.34561 10.0316 6.35132 10.0066 6.36608L8.34415 7.34428C8.24675 7.40056 8.13639 7.43054 8.02391 7.43127C7.91142 7.43201 7.80068 7.40348 7.70255 7.34848L6.23955 6.51268C6.21593 6.49923 6.18865 6.49364 6.16164 6.49674C6.13464 6.49983 6.10932 6.51144 6.08935 6.52988L0.533752 11.6831C0.519187 11.6967 0.508005 11.7135 0.501096 11.7322C0.494186 11.7509 0.491742 11.771 0.493956 11.7908C0.496171 11.8106 0.502983 11.8296 0.513851 11.8464C0.524719 11.8631 0.539341 11.877 0.556552 11.8871C0.642952 11.9379 0.726352 11.9621 0.811152 11.9621H15.0418C15.0667 11.9621 15.091 11.9549 15.1118 11.9412C15.1326 11.9275 15.1489 11.908 15.1588 11.8851C15.1687 11.8623 15.1718 11.8371 15.1676 11.8126C15.1634 11.7881 15.1521 11.7654 15.1352 11.7473L10.1648 6.38968Z" fill="#333333"/>
<path d="M4.86661 5.92028C4.88132 5.90668 4.89263 5.88981 4.89962 5.87102C4.90661 5.85224 4.90909 5.83208 4.90685 5.81217C4.90461 5.79225 4.89772 5.77314 4.88673 5.75638C4.87575 5.73962 4.86097 5.72568 4.84361 5.71568L0.490407 3.22928C0.470979 3.21825 0.448996 3.21252 0.426656 3.21265C0.404316 3.21278 0.382402 3.21877 0.363105 3.23003C0.343809 3.24129 0.327806 3.25742 0.316698 3.2768C0.30559 3.29618 0.299765 3.31814 0.299807 3.34048V9.86448C0.299666 9.8894 0.306834 9.91381 0.320425 9.9347C0.334016 9.95558 0.353433 9.97202 0.376272 9.98198C0.399111 9.99194 0.424369 9.99499 0.448922 9.99074C0.473474 9.98649 0.496241 9.97514 0.514407 9.95808L4.86661 5.92028Z" fill="#333333"/>
</svg>
