<svg width="20" height="20" viewBox="0 0 20 20" fill="none" xmlns="http://www.w3.org/2000/svg">
<path d="M1.54199 5.286L8.88944 9.315C9.13632 9.45 9.45569 9.514 9.77702 9.514C10.0983 9.514 10.4177 9.45 10.6646 9.315L18.012 5.286C18.4911 5.023 18.9437 4 18.0649 4H1.49006C0.611309 4 1.06391 5.023 1.54199 5.286V5.286ZM18.2344 7.489L10.6646 11.516C10.3315 11.694 10.0983 11.715 9.77702 11.715C9.45569 11.715 9.22253 11.694 8.88944 11.516C8.55636 11.338 1.90152 7.777 1.35781 7.488C0.975743 7.284 0.979662 7.523 0.979662 7.707V15C0.979662 15.42 1.53415 16 1.95932 16H17.6339C18.0591 16 18.6136 15.42 18.6136 15V7.708C18.6136 7.524 18.6175 7.285 18.2344 7.489V7.489Z" fill="#333333"/>
</svg>
