<svg width="24" height="24" viewBox="0 0 24 24" fill="none" xmlns="http://www.w3.org/2000/svg">
<path d="M8.564 2.445C8.564 2.12 8.597 1.925 9.154 1.925H16.619C17.919 1.925 18.639 3.035 19.159 5.118L19.579 6.784H20.849C21.079 2.056 21.279 0 21.279 0C21.279 0 18.083 0.36 16.189 0.36H6.64L1.526 0.196V1.566L3.251 1.892C4.461 2.132 4.751 2.388 4.851 3.498C4.851 3.498 4.961 6.768 4.961 12.138C4.961 17.523 4.871 20.748 4.871 20.748C4.871 21.721 4.481 22.081 3.281 22.321L1.559 22.651V24L6.689 23.835H15.239C17.174 23.835 21.629 24 21.629 24C21.734 22.83 22.379 17.52 22.484 16.936H21.284L20 19.846C18.995 22.126 17.524 22.291 15.89 22.291H10.984C9.354 22.291 8.569 21.651 8.569 20.241V12.8C8.569 12.8 12.189 12.8 13.359 12.896C14.271 12.96 14.822 13.221 15.119 14.494L15.509 16.189H16.919L16.829 11.911L17.021 7.606H15.63L15.18 9.496C14.897 10.74 14.7 10.966 13.426 11.096C11.76 11.266 8.611 11.236 8.611 11.236V2.45H8.561L8.564 2.445Z" fill="white"/>
</svg>
