<svg width="20" height="20" viewBox="0 0 20 20" fill="none" xmlns="http://www.w3.org/2000/svg">
<g clip-path="url(#clip0)">
<path d="M16.905 12.253C16.811 11.586 16.3065 11.066 15.6569 10.911C13.1324 10.307 12.4995 8.823 12.3927 7.177C11.945 7.092 11.1485 7 9.79662 7C8.44469 7 7.64822 7.092 7.20052 7.177C7.09373 8.823 6.46087 10.307 3.93629 10.911C3.28677 11.067 2.78224 11.586 2.6882 12.253L2.20131 15.695C2.02986 16.907 2.90176 18 4.11458 18H15.4787C16.6905 18 17.5634 16.907 17.3919 15.695L16.905 12.253ZM9.79662 15.492C8.42999 15.492 7.32199 14.372 7.32199 12.992C7.32199 11.612 8.42999 10.492 9.79662 10.492C11.1632 10.492 12.2712 11.612 12.2712 12.992C12.2712 14.372 11.1623 15.492 9.79662 15.492ZM19.5442 6C19.5207 4.5 15.7804 2.001 9.79662 2C3.81187 2.001 0.0715226 4.5 0.0489904 6C0.0264582 7.5 0.0695634 9.452 2.53243 9.127C5.41361 8.746 5.2363 7.719 5.2363 6.251C5.2363 5.227 7.57964 4.98 9.79662 4.98C12.0136 4.98 14.356 5.227 14.3569 6.251C14.3569 7.719 14.1796 8.746 17.0608 9.127C19.5227 9.452 19.5668 7.5 19.5442 6Z" fill="#333333"/>
</g>
<defs>
<clipPath id="clip0">
<rect width="19.5932" height="20" fill="white"/>
</clipPath>
</defs>
</svg>
