<svg width="39" height="39" viewBox="0 0 39 39" fill="none" xmlns="http://www.w3.org/2000/svg">
<path d="M35.8435 11.2856C35.6493 10.5641 35.269 9.90634 34.7407 9.37804C34.2124 8.84974 33.5546 8.46947 32.8332 8.27528C30.1763 7.55621 19.5001 7.55621 19.5001 7.55621C19.5001 7.55621 8.82381 7.55621 6.16694 8.27528C5.44549 8.46947 4.78769 8.84974 4.25939 9.37804C3.73109 9.90634 3.35082 10.5641 3.15662 11.2856C2.66053 13.9952 2.41978 16.7454 2.43756 19.5C2.41978 22.2545 2.66053 25.0047 3.15662 27.7143C3.35082 28.4358 3.73109 29.0936 4.25939 29.6219C4.78769 30.1502 5.44549 30.5305 6.16694 30.7246C8.82381 31.4437 19.5001 31.4437 19.5001 31.4437C19.5001 31.4437 30.1763 31.4437 32.8332 30.7246C33.5546 30.5305 34.2124 30.1502 34.7407 29.6219C35.269 29.0936 35.6493 28.4358 35.8435 27.7143C36.3396 25.0047 36.5803 22.2545 36.5626 19.5C36.5803 16.7454 36.3396 13.9952 35.8435 11.2856ZM16.0876 24.6187V14.3812L24.9479 19.5L16.0876 24.6187Z" fill="white"/>
</svg>
