<?xml version="1.0" encoding="UTF-8"?>
<svg xmlns="http://www.w3.org/2000/svg" xmlns:xlink="http://www.w3.org/1999/xlink" width="50pt" height="50pt" viewBox="0 0 50 50" version="1.1">
<g id="surface1">
<path style=" stroke:none;fill-rule:nonzero;fill:rgb(1.568627%,66.27451%,72.941176%);fill-opacity:1;" d="M 32.597656 25.246094 C 32.597656 25.792969 32.15625 26.234375 31.609375 26.234375 C 31.066406 26.234375 30.621094 25.792969 30.621094 25.246094 C 30.621094 24.703125 31.066406 24.261719 31.609375 24.261719 C 32.15625 24.261719 32.597656 24.703125 32.597656 25.246094 Z M 32.597656 25.246094 "/>
<path style=" stroke:none;fill-rule:nonzero;fill:rgb(0%,0%,0%);fill-opacity:1;" d="M 2.3125 14.109375 C 2.714844 14.109375 3.042969 13.78125 3.042969 13.375 L 3.042969 5.460938 L 46.957031 5.460938 L 46.957031 21.199219 C 46.957031 21.605469 47.285156 21.933594 47.6875 21.933594 C 48.09375 21.933594 48.421875 21.605469 48.421875 21.199219 L 48.421875 4.726562 C 48.421875 4.324219 48.09375 3.996094 47.6875 3.996094 L 27.210938 3.996094 L 27.210938 0.78125 C 27.210938 0.378906 26.882812 0.0507812 26.480469 0.0507812 L 23.519531 0.0507812 C 23.117188 0.0507812 22.789062 0.378906 22.789062 0.78125 L 22.789062 3.996094 L 2.3125 3.996094 C 1.90625 3.996094 1.578125 4.324219 1.578125 4.726562 L 1.578125 13.375 C 1.578125 13.78125 1.90625 14.109375 2.3125 14.109375 Z M 24.253906 1.515625 L 25.746094 1.515625 L 25.746094 3.996094 L 24.253906 3.996094 Z M 24.253906 1.515625 "/>
<path style=" stroke:none;fill-rule:nonzero;fill:rgb(0%,0%,0%);fill-opacity:1;" d="M 49.265625 34.972656 L 48.421875 34.972656 L 48.421875 24.621094 C 48.421875 24.21875 48.09375 23.890625 47.6875 23.890625 C 47.285156 23.890625 46.957031 24.21875 46.957031 24.621094 L 46.957031 34.972656 L 3.042969 34.972656 L 3.042969 16.796875 C 3.042969 16.390625 2.714844 16.0625 2.3125 16.0625 C 1.90625 16.0625 1.578125 16.390625 1.578125 16.796875 L 1.578125 34.972656 L 0.734375 34.972656 C 0.328125 34.972656 0 35.300781 0 35.703125 L 0 38.664062 C 0 39.066406 0.328125 39.394531 0.734375 39.394531 L 5.324219 39.394531 C 5.730469 39.394531 6.058594 39.066406 6.058594 38.664062 C 6.058594 38.257812 5.730469 37.929688 5.324219 37.929688 L 1.464844 37.929688 L 1.464844 36.4375 L 48.535156 36.4375 L 48.535156 37.929688 L 8.75 37.929688 C 8.34375 37.929688 8.015625 38.257812 8.015625 38.664062 C 8.015625 39.066406 8.34375 39.394531 8.75 39.394531 L 14.359375 39.394531 L 11.570312 49.015625 C 11.507812 49.234375 11.550781 49.472656 11.6875 49.65625 C 11.828125 49.84375 12.042969 49.949219 12.273438 49.949219 L 15.234375 49.949219 C 15.558594 49.949219 15.847656 49.734375 15.9375 49.421875 L 18.84375 39.394531 L 22.789062 39.394531 L 22.789062 49.21875 C 22.789062 49.621094 23.117188 49.949219 23.519531 49.949219 L 26.480469 49.949219 C 26.882812 49.949219 27.210938 49.621094 27.210938 49.21875 L 27.210938 39.394531 L 31.15625 39.394531 L 34.0625 49.421875 C 34.152344 49.734375 34.441406 49.949219 34.765625 49.949219 L 37.726562 49.949219 C 38.132812 49.949219 38.460938 49.621094 38.460938 49.21875 C 38.460938 49.128906 38.445312 49.042969 38.414062 48.960938 L 35.640625 39.394531 L 49.265625 39.394531 C 49.671875 39.394531 50 39.066406 50 38.664062 L 50 35.703125 C 50 35.296875 49.671875 34.972656 49.265625 34.972656 Z M 14.683594 48.484375 L 13.25 48.484375 L 15.882812 39.394531 L 17.316406 39.394531 Z M 25.746094 48.484375 L 24.253906 48.484375 L 24.253906 39.394531 L 25.746094 39.394531 Z M 36.75 48.484375 L 35.316406 48.484375 L 32.683594 39.394531 L 34.117188 39.394531 Z M 36.75 48.484375 "/>
<path style=" stroke:none;fill-rule:nonzero;fill:rgb(0%,0%,0%);fill-opacity:1;" d="M 22.378906 8.082031 C 22.378906 7.675781 22.050781 7.347656 21.644531 7.347656 L 6.847656 7.347656 C 6.445312 7.347656 6.117188 7.675781 6.117188 8.082031 L 6.117188 17.945312 C 6.117188 18.351562 6.445312 18.679688 6.847656 18.679688 L 21.644531 18.679688 C 22.050781 18.679688 22.378906 18.351562 22.378906 17.945312 Z M 20.914062 17.214844 L 7.582031 17.214844 L 7.582031 8.8125 L 20.914062 8.8125 Z M 20.914062 17.214844 "/>
<path style=" stroke:none;fill-rule:nonzero;fill:rgb(0%,0%,0%);fill-opacity:1;" d="M 13.359375 11.773438 L 18.6875 11.773438 C 19.089844 11.773438 19.417969 11.445312 19.417969 11.042969 C 19.417969 10.636719 19.089844 10.308594 18.6875 10.308594 L 13.359375 10.308594 C 12.953125 10.308594 12.628906 10.636719 12.628906 11.042969 C 12.628906 11.445312 12.953125 11.773438 13.359375 11.773438 Z M 13.359375 11.773438 "/>
<path style=" stroke:none;fill-rule:nonzero;fill:rgb(0%,0%,0%);fill-opacity:1;" d="M 9.808594 11.773438 L 10.792969 11.773438 C 11.199219 11.773438 11.527344 11.445312 11.527344 11.042969 C 11.527344 10.636719 11.199219 10.308594 10.792969 10.308594 L 9.808594 10.308594 C 9.402344 10.308594 9.074219 10.636719 9.074219 11.042969 C 9.074219 11.445312 9.402344 11.773438 9.808594 11.773438 Z M 9.808594 11.773438 "/>
<path style=" stroke:none;fill-rule:nonzero;fill:rgb(0%,0%,0%);fill-opacity:1;" d="M 13.359375 15.71875 L 18.6875 15.71875 C 19.089844 15.71875 19.417969 15.390625 19.417969 14.988281 C 19.417969 14.582031 19.089844 14.253906 18.6875 14.253906 L 13.359375 14.253906 C 12.953125 14.253906 12.628906 14.582031 12.628906 14.988281 C 12.628906 15.390625 12.953125 15.71875 13.359375 15.71875 Z M 13.359375 15.71875 "/>
<path style=" stroke:none;fill-rule:nonzero;fill:rgb(0%,0%,0%);fill-opacity:1;" d="M 9.808594 15.71875 L 10.792969 15.71875 C 11.199219 15.71875 11.527344 15.390625 11.527344 14.988281 C 11.527344 14.582031 11.199219 14.253906 10.792969 14.253906 L 9.808594 14.253906 C 9.402344 14.253906 9.074219 14.582031 9.074219 14.988281 C 9.074219 15.390625 9.402344 15.71875 9.808594 15.71875 Z M 9.808594 15.71875 "/>
<path style=" stroke:none;fill-rule:nonzero;fill:rgb(0%,0%,0%);fill-opacity:1;" d="M 21.644531 21.75 L 6.847656 21.75 C 6.445312 21.75 6.117188 22.078125 6.117188 22.484375 L 6.117188 32.347656 C 6.117188 32.753906 6.445312 33.082031 6.847656 33.082031 L 21.644531 33.082031 C 22.050781 33.082031 22.378906 32.753906 22.378906 32.347656 L 22.378906 22.484375 C 22.378906 22.078125 22.050781 21.75 21.644531 21.75 Z M 20.914062 31.617188 L 7.582031 31.617188 L 7.582031 23.214844 L 20.914062 23.214844 Z M 20.914062 31.617188 "/>
<path style=" stroke:none;fill-rule:nonzero;fill:rgb(0%,0%,0%);fill-opacity:1;" d="M 43.882812 8.082031 C 43.882812 7.675781 43.554688 7.347656 43.152344 7.347656 L 28.355469 7.347656 C 27.949219 7.347656 27.621094 7.675781 27.621094 8.082031 L 27.621094 17.945312 C 27.621094 18.351562 27.949219 18.679688 28.355469 18.679688 L 43.152344 18.679688 C 43.554688 18.679688 43.882812 18.351562 43.882812 17.945312 Z M 42.417969 17.214844 L 29.085938 17.214844 L 29.085938 8.8125 L 42.417969 8.8125 Z M 42.417969 17.214844 "/>
<path style=" stroke:none;fill-rule:nonzero;fill:rgb(1.568627%,66.27451%,72.941176%);fill-opacity:1;" d="M 43.152344 21.75 L 28.355469 21.75 C 27.949219 21.75 27.621094 22.078125 27.621094 22.484375 L 27.621094 32.347656 C 27.621094 32.753906 27.949219 33.082031 28.355469 33.082031 L 43.152344 33.082031 C 43.554688 33.082031 43.882812 32.753906 43.882812 32.347656 L 43.882812 22.484375 C 43.882812 22.078125 43.554688 21.75 43.152344 21.75 Z M 42.417969 23.214844 L 42.417969 29.816406 L 39.726562 25.546875 C 39.601562 25.351562 39.394531 25.226562 39.167969 25.207031 C 38.9375 25.1875 38.710938 25.277344 38.558594 25.453125 L 36.042969 28.292969 L 34.617188 26.726562 C 34.347656 26.429688 33.886719 26.40625 33.585938 26.675781 L 29.085938 30.710938 L 29.085938 23.214844 Z M 41.824219 31.617188 L 30.269531 31.617188 L 34.023438 28.25 L 35.507812 29.882812 C 35.644531 30.035156 35.84375 30.121094 36.046875 30.121094 L 36.054688 30.121094 C 36.261719 30.121094 36.460938 30.03125 36.597656 29.875 L 39.007812 27.152344 Z M 41.824219 31.617188 "/>
</g>
</svg>
