<?xml version="1.0" encoding="UTF-8"?>
<svg xmlns="http://www.w3.org/2000/svg" xmlns:xlink="http://www.w3.org/1999/xlink" width="50pt" height="50pt" viewBox="0 0 50 50" version="1.1">
<g id="surface1">
<path style=" stroke:none;fill-rule:nonzero;fill:rgb(0%,0%,0%);fill-opacity:1;" d="M 49.765625 24.429688 L 25.570312 0.234375 C 25.253906 -0.078125 24.746094 -0.078125 24.429688 0.234375 L 0.234375 24.429688 C 0.00390625 24.660156 -0.0625 25.007812 0.0625 25.308594 C 0.1875 25.609375 0.480469 25.804688 0.804688 25.804688 L 4.839844 25.804688 L 4.839844 45.160156 L 4.03125 45.160156 C 3.585938 45.160156 3.226562 45.523438 3.226562 45.96875 L 3.226562 49.195312 C 3.226562 49.640625 3.585938 50 4.03125 50 L 45.96875 50 C 46.414062 50 46.773438 49.640625 46.773438 49.195312 L 46.773438 45.96875 C 46.773438 45.523438 46.414062 45.160156 45.96875 45.160156 L 45.160156 45.160156 L 45.160156 25.804688 L 49.195312 25.804688 C 49.519531 25.804688 49.8125 25.609375 49.9375 25.308594 C 50.0625 25.007812 49.996094 24.660156 49.765625 24.429688 Z M 45.160156 48.386719 L 4.839844 48.386719 L 4.839844 46.773438 L 45.160156 46.773438 Z M 20.96875 45.160156 L 11.289062 45.160156 L 11.289062 30.644531 L 20.96875 30.644531 Z M 22.582031 45.160156 L 22.582031 29.839844 C 22.582031 29.394531 22.21875 29.03125 21.773438 29.03125 L 10.484375 29.03125 C 10.039062 29.03125 9.675781 29.394531 9.675781 29.839844 L 9.675781 45.160156 L 6.453125 45.160156 L 6.453125 25.332031 L 25 6.785156 L 43.546875 25.332031 L 43.546875 45.160156 Z M 44.6875 24.195312 L 25.570312 5.074219 C 25.253906 4.761719 24.746094 4.761719 24.429688 5.074219 L 5.3125 24.195312 L 2.753906 24.195312 L 25 1.945312 L 47.246094 24.195312 Z M 44.6875 24.195312 "/>
<path style=" stroke:none;fill-rule:nonzero;fill:rgb(0%,0%,0%);fill-opacity:1;" d="M 30.644531 20.160156 C 30.644531 17.042969 28.117188 14.515625 25 14.515625 C 21.882812 14.515625 19.355469 17.042969 19.355469 20.160156 C 19.355469 23.277344 21.882812 25.804688 25 25.804688 C 28.117188 25.804688 30.640625 23.277344 30.644531 20.160156 Z M 20.96875 20.160156 C 20.96875 17.933594 22.773438 16.128906 25 16.128906 C 27.226562 16.128906 29.03125 17.933594 29.03125 20.160156 C 29.03125 22.386719 27.226562 24.195312 25 24.195312 C 22.773438 24.191406 20.96875 22.386719 20.96875 20.160156 Z M 20.96875 20.160156 "/>
<path style=" stroke:none;fill-rule:nonzero;fill:rgb(1.568627%,66.27451%,72.941176%);fill-opacity:1;" d="M 41.128906 29.03125 L 25 29.03125 C 24.554688 29.03125 24.195312 29.394531 24.195312 29.839844 L 24.195312 41.128906 C 24.195312 41.574219 24.554688 41.933594 25 41.933594 L 41.128906 41.933594 C 41.574219 41.933594 41.933594 41.574219 41.933594 41.128906 L 41.933594 29.839844 C 41.933594 29.394531 41.574219 29.03125 41.128906 29.03125 Z M 40.324219 34.675781 L 33.871094 34.675781 L 33.871094 30.644531 L 40.324219 30.644531 Z M 32.257812 30.644531 L 32.257812 34.675781 L 25.804688 34.675781 L 25.804688 30.644531 Z M 25.804688 36.289062 L 32.257812 36.289062 L 32.257812 40.324219 L 25.804688 40.324219 Z M 33.871094 40.324219 L 33.871094 36.289062 L 40.324219 36.289062 L 40.324219 40.324219 Z M 33.871094 40.324219 "/>
<path style=" stroke:none;fill-rule:nonzero;fill:rgb(0%,0%,0%);fill-opacity:1;" d="M 12.902344 35.484375 L 14.515625 35.484375 L 14.515625 38.710938 L 12.902344 38.710938 Z M 12.902344 35.484375 "/>
</g>
</svg>
