<svg height="512" viewBox="0 0 64 64" width="512" xmlns="http://www.w3.org/2000/svg"><g id="Meter-Water_Meter-Water-Measurement-Gauge" data-name="Meter-Water Meter-Water-Measurement-Gauge"><path d="m32 16a16 16 0 1 0 16 16 16.019 16.019 0 0 0 -16-16zm0 30a14 14 0 1 1 14-14 14.015 14.015 0 0 1 -14 14z"/><path d="m41 25h-18a1 1 0 0 0 -1 1v4a1 1 0 0 0 1 1h18a1 1 0 0 0 1-1v-4a1 1 0 0 0 -1-1zm-1 4h-16v-2h16z"/><path d="m38 35.184v-2.184h-2v2.184a3 3 0 1 0 2 0zm-1 3.816a1 1 0 1 1 1-1 1 1 0 0 1 -1 1z"/><path d="m22 33h2v2h-2z"/><path d="m26 33h2v2h-2z"/><path d="m30 33h2v2h-2z"/><path d="m22 37h2v2h-2z"/><path d="m26 37h2v2h-2z"/><path d="m30 37h2v2h-2z"/><path d="m31 21h2v2h-2z"/><path d="m35 21h2v2h-2z"/><path d="m27 21h2v2h-2z"/><path d="m61 22h-6a1 1 0 0 0 -1 1v1h-3.68a19.984 19.984 0 0 0 -36.64 0h-3.68v-1a1 1 0 0 0 -1-1h-6a1 1 0 0 0 -1 1v18a1 1 0 0 0 1 1h6a1 1 0 0 0 1-1v-1h3.68a19.984 19.984 0 0 0 36.64 0h3.68v1a1 1 0 0 0 1 1h6a1 1 0 0 0 1-1v-18a1 1 0 0 0 -1-1zm-53 18h-4v-16h4zm4.92-2h-2.92v-12h2.92a20.025 20.025 0 0 0 0 12zm19.08 12a18 18 0 1 1 18-18 18.014 18.014 0 0 1 -18 18zm22-12h-2.92a20.025 20.025 0 0 0 0-12h2.92zm6 2h-4v-16h4z"/></g></svg>