<?xml version="1.0" encoding="UTF-8"?>
<svg xmlns="http://www.w3.org/2000/svg" xmlns:xlink="http://www.w3.org/1999/xlink" width="78pt" height="78pt" viewBox="0 0 78 78" version="1.1">
<g id="surface1">
<path style=" stroke:none;fill-rule:nonzero;fill:rgb(0%,0%,0%);fill-opacity:1;" d="M 27.632812 66.785156 L 29.8125 66.785156 C 30.320312 66.785156 30.726562 66.375 30.726562 65.871094 C 30.726562 65.363281 30.320312 64.957031 29.8125 64.957031 L 27.632812 64.957031 C 27.128906 64.957031 26.71875 65.363281 26.71875 65.871094 C 26.71875 66.375 27.128906 66.785156 27.632812 66.785156 Z M 27.632812 66.785156 "/>
<path style=" stroke:none;fill-rule:nonzero;fill:rgb(0%,0%,0%);fill-opacity:1;" d="M 33.042969 66.785156 L 42.75 66.785156 C 43.253906 66.785156 43.664062 66.375 43.664062 65.871094 C 43.664062 65.363281 43.253906 64.957031 42.75 64.957031 L 33.042969 64.957031 C 32.539062 64.957031 32.128906 65.363281 32.128906 65.871094 C 32.128906 66.375 32.539062 66.785156 33.042969 66.785156 Z M 33.042969 66.785156 "/>
<path style=" stroke:none;fill-rule:nonzero;fill:rgb(0%,0%,0%);fill-opacity:1;" d="M 52.230469 20.085938 C 52.230469 12.78125 46.308594 6.855469 39 6.855469 C 31.691406 6.855469 25.769531 12.78125 25.769531 20.085938 C 25.769531 27.394531 31.691406 33.316406 39 33.316406 C 46.304688 33.308594 52.222656 27.390625 52.230469 20.085938 Z M 32.15625 26.929688 C 31.796875 26.574219 31.21875 26.574219 30.863281 26.929688 L 30.324219 27.472656 C 28.769531 25.652344 27.828125 23.386719 27.636719 21 L 28.40625 21 C 28.910156 21 29.320312 20.59375 29.320312 20.085938 C 29.320312 19.582031 28.910156 19.171875 28.40625 19.171875 L 27.636719 19.171875 C 27.828125 16.789062 28.769531 14.523438 30.324219 12.703125 L 30.863281 13.242188 C 31.222656 13.59375 31.796875 13.59375 32.152344 13.238281 C 32.503906 12.882812 32.507812 12.308594 32.15625 11.949219 L 31.613281 11.410156 C 33.433594 9.855469 35.699219 8.914062 38.085938 8.726562 L 38.085938 9.492188 C 38.085938 10 38.496094 10.40625 39 10.40625 C 39.503906 10.40625 39.914062 10 39.914062 9.492188 L 39.914062 8.726562 C 42.300781 8.914062 44.566406 9.855469 46.386719 11.410156 L 45.84375 11.949219 C 45.609375 12.179688 45.519531 12.519531 45.601562 12.835938 C 45.6875 13.152344 45.933594 13.402344 46.25 13.484375 C 46.570312 13.570312 46.90625 13.476562 47.136719 13.242188 L 47.675781 12.703125 C 49.230469 14.523438 50.171875 16.789062 50.363281 19.175781 L 49.59375 19.175781 C 49.089844 19.175781 48.679688 19.582031 48.679688 20.089844 C 48.679688 20.59375 49.089844 21.003906 49.59375 21.003906 L 50.363281 21.003906 C 50.171875 23.386719 49.230469 25.652344 47.675781 27.472656 L 47.136719 26.933594 C 46.90625 26.699219 46.570312 26.605469 46.25 26.691406 C 45.933594 26.773438 45.6875 27.023438 45.601562 27.339844 C 45.519531 27.65625 45.609375 27.996094 45.84375 28.226562 L 46.382812 28.765625 C 42.132812 32.398438 35.867188 32.398438 31.617188 28.765625 L 32.15625 28.226562 C 32.328125 28.054688 32.421875 27.820312 32.421875 27.578125 C 32.421875 27.335938 32.328125 27.101562 32.15625 26.929688 Z M 32.15625 26.929688 "/>
<path style=" stroke:none;fill-rule:nonzero;fill:rgb(0%,0%,0%);fill-opacity:1;" d="M 39 25.074219 C 40.410156 25.078125 41.613281 24.054688 41.839844 22.664062 C 42.066406 21.273438 41.25 19.921875 39.914062 19.472656 L 39.914062 15.371094 C 39.914062 14.867188 39.503906 14.457031 39 14.457031 C 38.496094 14.457031 38.085938 14.867188 38.085938 15.371094 L 38.085938 19.472656 C 36.75 19.921875 35.933594 21.273438 36.160156 22.664062 C 36.386719 24.054688 37.589844 25.078125 39 25.074219 Z M 39 21.152344 C 39.578125 21.152344 40.046875 21.621094 40.046875 22.199219 C 40.046875 22.777344 39.578125 23.246094 39 23.246094 C 38.421875 23.246094 37.953125 22.777344 37.953125 22.199219 C 37.953125 21.621094 38.421875 21.152344 39 21.152344 Z M 39 21.152344 "/>
<path style=" stroke:none;fill-rule:nonzero;fill:rgb(0%,0%,0%);fill-opacity:1;" d="M 72.363281 44.847656 L 65.660156 44.847656 C 64.316406 44.847656 63.222656 45.9375 63.222656 47.285156 L 63.222656 48.199219 L 50.804688 48.199219 L 50.804688 42.867188 C 50.804688 42.359375 50.398438 41.953125 49.890625 41.953125 L 42.960938 41.953125 L 42.960938 36.40625 C 51.222656 34.402344 56.683594 26.535156 55.675781 18.09375 C 54.664062 9.648438 47.503906 3.292969 39 3.292969 C 30.496094 3.292969 23.335938 9.648438 22.324219 18.09375 C 21.316406 26.535156 26.777344 34.402344 35.039062 36.40625 L 35.039062 41.953125 L 28.109375 41.953125 C 27.601562 41.953125 27.195312 42.359375 27.195312 42.867188 L 27.195312 48.199219 L 14.777344 48.199219 L 14.777344 47.285156 C 14.777344 45.9375 13.683594 44.847656 12.339844 44.847656 L 5.636719 44.847656 C 4.292969 44.847656 3.199219 45.9375 3.199219 47.285156 L 3.199219 72.269531 C 3.199219 73.613281 4.292969 74.703125 5.636719 74.707031 L 12.339844 74.707031 C 13.683594 74.703125 14.777344 73.613281 14.777344 72.269531 L 14.777344 71.355469 L 63.222656 71.355469 L 63.222656 72.269531 C 63.222656 73.613281 64.316406 74.703125 65.660156 74.707031 L 72.363281 74.707031 C 73.707031 74.703125 74.800781 73.613281 74.800781 72.269531 L 74.800781 47.285156 C 74.800781 45.9375 73.707031 44.847656 72.363281 44.847656 Z M 12.949219 72.269531 C 12.949219 72.605469 12.675781 72.878906 12.339844 72.878906 L 5.636719 72.878906 C 5.300781 72.878906 5.027344 72.605469 5.027344 72.269531 L 5.027344 65.871094 L 12.949219 65.871094 Z M 12.949219 64.042969 L 5.027344 64.042969 L 5.027344 55.511719 L 12.949219 55.511719 Z M 12.949219 53.683594 L 5.027344 53.683594 L 5.027344 47.285156 C 5.027344 46.945312 5.300781 46.675781 5.636719 46.675781 L 12.339844 46.675781 C 12.675781 46.675781 12.949219 46.945312 12.949219 47.285156 Z M 45.929688 43.78125 L 48.976562 43.78125 L 48.976562 48.199219 L 45.929688 48.199219 Z M 44.101562 43.78125 L 44.101562 48.199219 L 39.992188 48.199219 L 39.992188 43.78125 Z M 36.867188 41.953125 L 36.867188 36.746094 C 38.285156 36.925781 39.714844 36.925781 41.132812 36.746094 L 41.132812 41.953125 Z M 24.035156 20.085938 C 24.035156 11.824219 30.734375 5.121094 39 5.121094 C 47.265625 5.121094 53.964844 11.824219 53.964844 20.085938 C 53.964844 28.351562 47.265625 35.050781 39 35.050781 C 30.738281 35.042969 24.042969 28.347656 24.035156 20.085938 Z M 33.898438 43.78125 L 38.164062 43.78125 L 38.164062 48.199219 L 33.898438 48.199219 Z M 29.023438 43.78125 L 32.070312 43.78125 L 32.070312 48.199219 L 29.023438 48.199219 Z M 21.023438 69.527344 L 14.777344 69.527344 L 14.777344 50.027344 L 21.023438 50.027344 Z M 55.148438 69.527344 L 22.851562 69.527344 L 22.851562 50.027344 L 55.148438 50.027344 Z M 63.222656 69.527344 L 56.976562 69.527344 L 56.976562 50.027344 L 63.222656 50.027344 Z M 72.972656 72.269531 C 72.972656 72.605469 72.699219 72.878906 72.363281 72.878906 L 65.660156 72.878906 C 65.324219 72.878906 65.050781 72.605469 65.050781 72.269531 L 65.050781 65.871094 L 72.972656 65.871094 Z M 72.972656 64.042969 L 65.050781 64.042969 L 65.050781 55.511719 L 72.972656 55.511719 Z M 72.972656 53.683594 L 65.050781 53.683594 L 65.050781 47.285156 C 65.050781 46.945312 65.324219 46.675781 65.660156 46.675781 L 72.363281 46.675781 C 72.699219 46.675781 72.972656 46.945312 72.972656 47.285156 Z M 72.972656 53.683594 "/>
</g>
</svg>
