<svg id="Layer_5" enable-background="new 0 0 64 64" height="512" viewBox="0 0 64 64" width="512" xmlns="http://www.w3.org/2000/svg"><g><path d="m32 24.371-6.378 8.201c-1.046 1.345-1.622 3.024-1.622 4.727 0 4.246 3.455 7.701 7.701 7.701h.598c4.246 0 7.701-3.455 7.701-7.701 0-1.703-.576-3.382-1.622-4.728zm.299 18.629h-.598c-3.143 0-5.701-2.558-5.701-5.701 0-1.261.427-2.504 1.2-3.499l4.8-6.171 4.8 6.17c.773.996 1.2 2.239 1.2 3.5 0 3.143-2.558 5.701-5.701 5.701z"/><path d="m48 5.764-.105-.211c-1.405-2.809-4.227-4.553-7.367-4.553h-17.056c-3.14 0-5.962 1.744-7.366 4.553l-.106.211v42.771l6 4v7.465c0 1.654 1.346 3 3 3h4c1.654 0 3-1.346 3-3v-3h2v3c0 1.654 1.346 3 3 3h2c1.654 0 3-1.346 3-3v-7.465l6-4zm-22 41.236v2h17.697l-3 2h-17.394l-3-2h3.697v-2h-6v-40h28v40zm-2.528-44h17.057c1.775 0 3.41.742 4.57 2h-26.198c1.16-1.258 2.796-2 4.571-2zm15.528 58h-2c-.552 0-1-.448-1-1v-5h-6v5c0 .552-.448 1-1 1h-4c-.552 0-1-.448-1-1v-7h16v7c0 .552-.448 1-1 1z"/><path d="m42 9h-20c-1.103 0-2 .897-2 2v10c0 1.103.897 2 2 2h20c1.103 0 2-.897 2-2v-10c0-1.103-.897-2-2-2zm-20 12v-10h20l.002 10z"/><path d="m20 43h2v2h-2z"/><path d="m20 25h2v2h-2z"/><path d="m42 25h2v2h-2z"/><path d="m42 43h2v2h-2z"/><path d="m32 39v2c2.206 0 4-1.794 4-4h-2c0 1.103-.897 2-2 2z"/></g></svg>