<svg width="233" height="226" viewBox="0 0 233 226" fill="none" xmlns="http://www.w3.org/2000/svg"><g clip-path="url(#clip0)"><g filter="url(#filter0_d)"><rect x=".326653" y=".599365" width="232.404" height="225.253" rx="8.93861" fill="#1d2067"/></g><path d="M32.9204 31.2752C33.912 31.2752 34.813 31.4993 35.6234 31.9474 36.4434 32.3955 37.087 33.0105 37.5542 33.7923 38.0214 34.5741 38.255 35.4418 38.255 36.3952 38.255 37.3487 38.0214 38.2211 37.5542 39.0125 37.087 39.7943 36.4434 40.414 35.6234 40.8717 34.813 41.3294 33.912 41.5582 32.9204 41.5582 31.9288 41.5582 31.023 41.3294 30.2031 40.8717 29.3926 40.414 28.7538 39.7943 28.2866 39.0125 27.8194 38.2211 27.5858 37.3487 27.5858 36.3952 27.5858 35.4418 27.8194 34.5741 28.2866 33.7923 28.7538 33.0105 29.3926 32.3955 30.2031 31.9474 31.023 31.4993 31.9288 31.2752 32.9204 31.2752zM32.949 32.9914C32.3388 32.9914 31.7715 33.144 31.2471 33.4491 30.7227 33.7446 30.3079 34.1546 30.0028 34.679 29.6977 35.1939 29.5452 35.766 29.5452 36.3952 29.5452 37.0245 29.6977 37.6014 30.0028 38.1258 30.3175 38.6502 30.7322 39.0649 31.2471 39.37 31.7715 39.6751 32.3388 39.8277 32.949 39.8277 33.5497 39.8277 34.1074 39.6751 34.6223 39.37 35.1372 39.0649 35.5424 38.6502 35.838 38.1258 36.1431 37.6014 36.2956 37.0245 36.2956 36.3952 36.2956 35.766 36.1431 35.1939 35.838 34.679 35.5424 34.1546 35.1372 33.7446 34.6223 33.4491 34.1074 33.144 33.5497 32.9914 32.949 32.9914zM38.6227 33.778 40.5677 33.7637 42.57 39.5845 44.5293 33.7637h1.8735L43.4853 41.4152H41.5688L38.6227 33.778zM50.401 33.7065C51.6214 33.7065 52.5367 34.0545 53.1469 34.7505 53.7666 35.4466 54.0765 36.4238 54.0765 37.6824 54.0765 37.9303 54.0718 38.1162 54.0622 38.2402H48.413C48.537 38.7836 48.7896 39.2127 49.171 39.5273 49.5619 39.8324 50.0387 39.985 50.6012 39.985 50.9921 39.985 51.3639 39.9135 51.7167 39.7705 52.079 39.6179 52.3937 39.4034 52.6606 39.1269L53.6618 40.1709C53.2804 40.5904 52.8132 40.9146 52.2602 41.1434 51.7167 41.3723 51.1113 41.4867 50.4439 41.4867 49.662 41.4867 48.9708 41.3246 48.3701 41.0004 47.779 40.6762 47.3213 40.2233 46.9971 39.6417 46.673 39.0506 46.5109 38.3737 46.5109 37.6109 46.5109 36.8481 46.673 36.1712 46.9971 35.58 47.3308 34.9889 47.7933 34.5312 48.3844 34.2071 48.9756 33.8734 49.6477 33.7065 50.401 33.7065zM52.3746 36.9959C52.3555 36.4334 52.1696 35.9853 51.8168 35.6515 51.4641 35.3178 50.9969 35.151 50.4153 35.151 49.8718 35.151 49.4141 35.3178 49.0423 35.6515 48.68 35.9757 48.4559 36.4238 48.3701 36.9959h4.0045zM57.5346 35.2368C57.7921 34.741 58.1401 34.3644 58.5787 34.107 59.0268 33.84 59.5464 33.7017 60.1376 33.6922V35.4942C59.3462 35.4466 58.7122 35.6325 58.2354 36.052 57.7682 36.462 57.5346 37.0197 57.5346 37.7253V41.4152H55.6754V33.7637H57.5346V35.2368zM60.634 33.778 62.579 33.7637 64.5813 39.5845 66.5406 33.7637H68.4142L65.4966 41.4152H63.5802L60.634 33.778zM69.4884 33.7637H71.3476V41.4152H69.4884V33.7637zM70.4037 30.4743C70.7088 30.4743 70.9614 30.5792 71.1617 30.7889 71.3619 30.9987 71.462 31.2657 71.462 31.5898 71.462 31.9045 71.3619 32.1667 71.1617 32.3764 70.9614 32.5862 70.7088 32.6911 70.4037 32.6911 70.0986 32.6911 69.8459 32.5862 69.6457 32.3764 69.4454 32.1667 69.3453 31.9045 69.3453 31.5898 69.3453 31.2657 69.4454 30.9987 69.6457 30.7889 69.8459 30.5792 70.0986 30.4743 70.4037 30.4743zM76.8397 33.7065C78.0601 33.7065 78.9754 34.0545 79.5856 34.7505 80.2054 35.4466 80.5152 36.4238 80.5152 37.6824 80.5152 37.9303 80.5105 38.1162 80.5009 38.2402H74.8517C74.9757 38.7836 75.2284 39.2127 75.6097 39.5273 76.0006 39.8324 76.4774 39.985 77.0399 39.985 77.4308 39.985 77.8027 39.9135 78.1554 39.7705 78.5178 39.6179 78.8324 39.4034 79.0994 39.1269L80.1005 40.1709C79.7191 40.5904 79.2519 40.9146 78.6989 41.1434 78.1554 41.3723 77.55 41.4867 76.8826 41.4867 76.1008 41.4867 75.4095 41.3246 74.8088 41.0004 74.2177 40.6762 73.76 40.2233 73.4359 39.6417 73.1117 39.0506 72.9496 38.3737 72.9496 37.6109 72.9496 36.8481 73.1117 36.1712 73.4359 35.58 73.7696 34.9889 74.232 34.5312 74.8231 34.2071 75.4143 33.8734 76.0865 33.7065 76.8397 33.7065zM78.8133 36.9959C78.7943 36.4334 78.6083 35.9853 78.2556 35.6515 77.9028 35.3178 77.4356 35.151 76.854 35.151 76.3105 35.151 75.8529 35.3178 75.481 35.6515 75.1187 35.9757 74.8946 36.4238 74.8088 36.9959H78.8133zM80.676 33.778 82.5925 33.7637 84.466 39.5416 86.2823 33.7637H88.1559L90.0008 39.5416 91.8314 33.7637H93.7049L90.9304 41.4152H89.0283L87.1976 36.0234 85.3813 41.4152H83.4792L80.676 33.778z" fill="#8476aa"/><path d="M151.747 41.4152v-6.381H152.489V40.743H155.304V41.4152H151.747zM159.224 41.4152 159.079 40.7343H159.045C158.806 41.034 158.567 41.2377 158.329 41.3453 158.093 41.4501 157.798 41.5025 157.443 41.5025 156.968 41.5025 156.596 41.3802 156.325 41.1358 156.058 40.8914 155.924 40.5437 155.924 40.0927 155.924 39.1267 156.696 38.6204 158.241 38.5738L159.053 38.5476V38.2509C159.053 37.8755 158.972 37.5991 158.809 37.4216 158.649 37.2412 158.391 37.151 158.036 37.151 157.638 37.151 157.187 37.2732 156.683 37.5176L156.461 36.9633C156.696 36.8353 156.954 36.7349 157.233 36.6622 157.516 36.5894 157.798 36.553 158.08 36.553 158.65 36.553 159.072 36.6796 159.346 36.9328 159.622 37.1859 159.76 37.5918 159.76 38.1505V41.4152H159.224zM157.587 40.9045C158.038 40.9045 158.391 40.7808 158.647 40.5335 158.906 40.2862 159.036 39.9399 159.036 39.4948V39.0627L158.311 39.0932C157.735 39.1136 157.319 39.2038 157.063 39.3638 156.81 39.5209 156.683 39.7668 156.683 40.1014 156.683 40.3633 156.762 40.5626 156.919 40.6994 157.079 40.8361 157.302 40.9045 157.587 40.9045zM164.343 40.1102C164.343 40.5553 164.177 40.8987 163.846 41.1402 163.514 41.3817 163.048 41.5025 162.449 41.5025 161.815 41.5025 161.32 41.4021 160.965 41.2013V40.5292C161.195 40.6455 161.441 40.7372 161.703 40.8041 161.967 40.871 162.222 40.9045 162.466 40.9045 162.845 40.9045 163.136 40.8449 163.339 40.7256 163.543 40.6034 163.645 40.4186 163.645 40.1713 163.645 39.985 163.563 39.8265 163.4 39.6955 163.24 39.5617 162.926 39.4046 162.458 39.2242 162.012 39.0583 161.695 38.9143 161.506 38.7921 161.32 38.6669 161.18 38.5258 161.087 38.3687 160.997 38.2116 160.952 38.0239 160.952 37.8057 160.952 37.4158 161.11 37.1088 161.428 36.8848 161.745 36.6578 162.18 36.5443 162.733 36.5443 163.248 36.5443 163.751 36.6491 164.243 36.8586L163.985 37.4478C163.505 37.2499 163.07 37.151 162.68 37.151 162.337 37.151 162.078 37.2048 161.903 37.3125 161.729 37.4201 161.641 37.5685 161.641 37.7577 161.641 37.8857 161.673 37.9948 161.737 38.085 161.804 38.1752 161.911 38.261 162.056 38.3425 162.202 38.424 162.481 38.5418 162.894 38.696 163.461 38.9026 163.844 39.1107 164.042 39.3202 164.243 39.5297 164.343 39.793 164.343 40.1102zM167.071 40.9045C167.199 40.9045 167.323 40.8958 167.442 40.8783 167.561 40.858 167.656 40.8376 167.726 40.8172V41.3715C167.647 41.4093 167.531 41.4399 167.376 41.4632 167.225 41.4894 167.088 41.5025 166.966 41.5025 166.041 41.5025 165.578 41.0151 165.578 40.0403V37.1946H164.893V36.8455L165.578 36.5443 165.884 35.523H166.303V36.6316H167.691V37.1946H166.303V40.0098C166.303 40.2978 166.371 40.519 166.508 40.6732 166.645 40.8274 166.832 40.9045 167.071 40.9045zM172.671 37.5176C173.343 37.5176 173.871 37.6849 174.255 38.0195 174.642 38.3512 174.836 38.8066 174.836 39.3856 174.836 40.0461 174.625 40.5641 174.203 40.9394 173.784 41.3148 173.205 41.5025 172.466 41.5025 171.747 41.5025 171.198 41.3875 170.82 41.1577V40.4593C171.024 40.5903 171.277 40.6936 171.58 40.7692 171.882 40.8419 172.18 40.8783 172.474 40.8783 172.986 40.8783 173.384 40.7576 173.666 40.5161 173.951 40.2746 174.094 39.9254 174.094 39.4686 174.094 38.5782 173.548 38.133 172.457 38.133 172.18 38.133 171.811 38.1752 171.348 38.2596L170.973 38.0195 171.213 35.0342H174.386V35.702H171.833L171.671 37.618C172.006 37.5511 172.339 37.5176 172.671 37.5176zM184.542 41.4152V38.3032C184.542 37.9221 184.461 37.6369 184.298 37.4478 184.135 37.2557 183.882 37.1597 183.538 37.1597 183.087 37.1597 182.754 37.2892 182.539 37.5482 182.324 37.8071 182.216 38.2058 182.216 38.7441V41.4152H181.491V38.3032C181.491 37.9221 181.41 37.6369 181.247 37.4478 181.084 37.2557 180.83 37.1597 180.483 37.1597 180.029 37.1597 179.696 37.2965 179.484 37.57 179.274 37.8406 179.17 38.2858 179.17 38.9055V41.4152H178.445V36.6316H179.034L179.152 37.2863H179.187C179.324 37.0535 179.516 36.8717 179.763 36.7407 180.013 36.6098 180.293 36.5443 180.601 36.5443 181.349 36.5443 181.838 36.8149 182.068 37.3561H182.102C182.245 37.1059 182.452 36.908 182.722 36.7625 182.993 36.6171 183.301 36.5443 183.648 36.5443 184.189 36.5443 184.593 36.684 184.861 36.9633 185.131 37.2397 185.267 37.6835 185.267 38.2945V41.4152H184.542zM190.893 39.019C190.893 39.7988 190.696 40.4084 190.303 40.8478 189.911 41.2842 189.368 41.5025 188.676 41.5025 188.248 41.5025 187.868 41.4021 187.536 41.2013 187.205 41.0005 186.949 40.7125 186.768 40.3371 186.588 39.9618 186.498 39.5224 186.498 39.019 186.498 38.2392 186.693 37.6325 187.082 37.199 187.472 36.7625 188.014 36.5443 188.706 36.5443 189.375 36.5443 189.906 36.7669 190.299 37.2121 190.695 37.6573 190.893 38.2596 190.893 39.019zM187.248 39.019C187.248 39.6301 187.371 40.0956 187.615 40.4157 187.859 40.7357 188.219 40.8958 188.693 40.8958 189.167 40.8958 189.527 40.7372 189.771 40.42 190.018 40.1 190.142 39.633 190.142 39.019 190.142 38.4109 190.018 37.9497 189.771 37.6355 189.527 37.3183 189.164 37.1597 188.684 37.1597 188.21 37.1597 187.852 37.3154 187.611 37.6267 187.369 37.9381 187.248 38.4022 187.248 39.019zM195.441 41.4152V38.3207C195.441 37.9308 195.352 37.6398 195.174 37.4478 194.997 37.2557 194.719 37.1597 194.341 37.1597 193.84 37.1597 193.474 37.295 193.241 37.5656 193.008 37.8362 192.892 38.2829 192.892 38.9055V41.4152H192.167V36.6316H192.756L192.874 37.2863H192.909C193.058 37.0506 193.266 36.8687 193.533 36.7407 193.801 36.6098 194.099 36.5443 194.428 36.5443 195.004 36.5443 195.438 36.684 195.729 36.9633 196.02 37.2397 196.165 37.6835 196.165 38.2945V41.4152H195.441zM199.203 40.9045C199.331 40.9045 199.455 40.8958 199.574 40.8783 199.693 40.858 199.788 40.8376 199.858 40.8172V41.3715C199.779 41.4093 199.663 41.4399 199.508 41.4632 199.357 41.4894 199.22 41.5025 199.098 41.5025 198.173 41.5025 197.71 41.0151 197.71 40.0403V37.1946H197.025V36.8455L197.71 36.5443 198.016 35.523H198.435V36.6316H199.823V37.1946H198.435V40.0098C198.435 40.2978 198.503 40.519 198.64 40.6732 198.777 40.8274 198.964 40.9045 199.203 40.9045zM204.091 41.4152V38.3207C204.091 37.9308 204.002 37.6398 203.825 37.4478 203.647 37.2557 203.37 37.1597 202.991 37.1597 202.488 37.1597 202.12 37.2965 201.887 37.57 201.657 37.8435 201.542 38.2916 201.542 38.9143V41.4152H200.818V34.6239H201.542V36.6796C201.542 36.9269 201.531 37.1321 201.507 37.295H201.551C201.694 37.0652 201.896 36.8848 202.158 36.7538 202.422 36.62 202.724 36.553 203.061 36.553 203.646 36.553 204.084 36.6927 204.375 36.972 204.669 37.2485 204.816 37.6893 204.816 38.2945V41.4152H204.091z" fill="#8476aa"/><g opacity=".2" clip-path="url(#clip1)"><path d="M121.713 193.735 119.548 188.078H119.513C119.554 188.526 119.574 189.059 119.574 189.676V193.735H118.889v-6.381H120.006L122.027 192.617H122.062L124.1 187.354H125.209v6.381H124.467V189.623C124.467 189.152 124.487 188.64 124.528 188.087H124.493L122.311 193.735H121.713zM129.796 193.735 129.652 193.054H129.617C129.378 193.353 129.14 193.557 128.901 193.665 128.666 193.77 128.37 193.822 128.015 193.822 127.541 193.822 127.168 193.7 126.898 193.455 126.63 193.211 126.496 192.863 126.496 192.412 126.496 191.446 127.269 190.94 128.814 190.893L129.626 190.867V190.57C129.626 190.195 129.544 189.919 129.381 189.741 129.221 189.561 128.964 189.47 128.609 189.47 128.21 189.47 127.759 189.593 127.256 189.837L127.033 189.283C127.269 189.155 127.526 189.054 127.806 188.982 128.088 188.909 128.37 188.873 128.652 188.873 129.223 188.873 129.645 188.999 129.918 189.252 130.195 189.505 130.333 189.911 130.333 190.47V193.735H129.796zM128.159 193.224C128.61 193.224 128.964 193.1 129.22 192.853 129.479 192.606 129.608 192.259 129.608 191.814V191.382L128.884 191.413C128.308 191.433 127.892 191.523 127.635 191.683 127.382 191.84 127.256 192.086 127.256 192.421 127.256 192.683 127.334 192.882 127.491 193.019 127.651 193.156 127.874 193.224 128.159 193.224zM134.012 188.864C134.225 188.864 134.415 188.881 134.584 188.916L134.483 189.588C134.286 189.545 134.111 189.523 133.96 189.523 133.573 189.523 133.241 189.68 132.965 189.994 132.691 190.308 132.554 190.7 132.554 191.168V193.735H131.83V188.951H132.428L132.511 189.837H132.546C132.723 189.526 132.937 189.286 133.187 189.117 133.437 188.948 133.712 188.864 134.012 188.864z" fill="#fff"/><path d="M185.643 193.735 183.478 188.078H183.443C183.484 188.526 183.504 189.059 183.504 189.676V193.735H182.819v-6.381H183.936L185.957 192.617H185.992L188.03 187.354H189.139v6.381H188.397V189.623C188.397 189.152 188.417 188.64 188.458 188.087H188.423L186.241 193.735H185.643zM193.726 193.735 193.582 193.054H193.547C193.309 193.353 193.07 193.557 192.831 193.665 192.596 193.77 192.3 193.822 191.945 193.822 191.471 193.822 191.099 193.7 190.828 193.455 190.56 193.211 190.427 192.863 190.427 192.412 190.427 191.446 191.199 190.94 192.744 190.893L193.556 190.867V190.57C193.556 190.195 193.474 189.919 193.312 189.741 193.152 189.561 192.894 189.47 192.539 189.47 192.14 189.47 191.689 189.593 191.186 189.837L190.963 189.283C191.199 189.155 191.457 189.054 191.736 188.982 192.018 188.909 192.3 188.873 192.583 188.873 193.153 188.873 193.575 188.999 193.848 189.252 194.125 189.505 194.263 189.911 194.263 190.47V193.735H193.726zM192.089 193.224C192.54 193.224 192.894 193.1 193.15 192.853 193.409 192.606 193.539 192.259 193.539 191.814V191.382L192.814 191.413C192.238 191.433 191.822 191.523 191.566 191.683 191.313 191.84 191.186 192.086 191.186 192.421 191.186 192.683 191.265 192.882 191.422 193.019 191.582 193.156 191.804 193.224 192.089 193.224zM195.001 188.951H195.778L196.825 191.679C197.055 192.302 197.197 192.751 197.253 193.028H197.288C197.325 192.879 197.404 192.626 197.523 192.268 197.646 191.907 198.041 190.802 198.711 188.951H199.487L197.432 194.398C197.228 194.936 196.989 195.317 196.716 195.542 196.445 195.769 196.112 195.882 195.716 195.882 195.495 195.882 195.277 195.857 195.062 195.808V195.227C195.222 195.262 195.401 195.28 195.599 195.28 196.096 195.28 196.451 195 196.664 194.442L196.93 193.761 195.001 188.951z" fill="#fff"/><path d="M156.035 193.735 155.24 191.705H152.683L151.897 193.735H151.146L153.669 187.327H154.293L156.803 193.735H156.035zM155.009 191.037 154.267 189.06C154.171 188.81 154.072 188.503 153.97 188.139 153.906 188.419 153.815 188.726 153.695 189.06L152.945 191.037H155.009zM159.797 193.822C159.486 193.822 159.201 193.765 158.942 193.652 158.686 193.535 158.47 193.358 158.296 193.119H158.243C158.278 193.399 158.296 193.663 158.296 193.914V195.882H157.571V188.951H158.16L158.261 189.606H158.296C158.482 189.344 158.699 189.155 158.946 189.038 159.193 188.922 159.477 188.864 159.797 188.864 160.431 188.864 160.92 189.081 161.264 189.514 161.61 189.948 161.783 190.556 161.783 191.338 161.783 192.124 161.607 192.735 161.255 193.172 160.906 193.605 160.42 193.822 159.797 193.822zM159.692 189.479C159.203 189.479 158.85 189.614 158.632 189.885 158.413 190.156 158.301 190.586 158.296 191.177V191.338C158.296 192.011 158.408 192.492 158.632 192.783 158.856 193.071 159.215 193.215 159.71 193.215 160.123 193.215 160.446 193.048 160.679 192.713 160.914 192.379 161.032 191.918 161.032 191.33 161.032 190.733 160.914 190.276 160.679 189.959 160.446 189.639 160.117 189.479 159.692 189.479zM165.235 188.864C165.448 188.864 165.638 188.881 165.807 188.916L165.707 189.588C165.509 189.545 165.334 189.523 165.183 189.523 164.796 189.523 164.464 189.68 164.188 189.994 163.914 190.308 163.777 190.7 163.777 191.168V193.735H163.053V188.951H163.651L163.734 189.837H163.769C163.946 189.526 164.16 189.286 164.41 189.117 164.661 188.948 164.936 188.864 165.235 188.864z" fill="#fff"/><path d="M88.2419 193.735H87.4999v-6.381H91.057V188.013H88.2419V190.348H90.8868V191.007H88.2419V193.735zM94.0293 193.822C93.3222 193.822 92.7636 193.607 92.3533 193.176 91.9459 192.745 91.7423 192.147 91.7423 191.382 91.7423 190.611 91.9314 189.999 92.3097 189.545 92.6908 189.091 93.2015 188.864 93.8416 188.864 94.441 188.864 94.9153 189.062 95.2645 189.457 95.6136 189.85 95.7882 190.37 95.7882 191.016V191.474H92.493C92.5075 192.035 92.6486 192.462 92.9163 192.753 93.1869 193.044 93.5666 193.189 94.0555 193.189 94.5705 193.189 95.0797 193.081 95.5831 192.866V193.512C95.327 193.623 95.0841 193.701 94.8542 193.748 94.6272 193.797 94.3523 193.822 94.0293 193.822zM93.8329 189.47C93.4488 189.47 93.1418 189.596 92.912 189.846 92.685 190.096 92.5512 190.442 92.5104 190.885H95.0113C95.0113 190.428 94.9095 190.079 94.7058 189.837 94.5021 189.593 94.2111 189.47 93.8329 189.47zM99.2537 188.873C99.8822 188.873 100.37 189.088 100.716 189.518 101.065 189.946 101.24 190.553 101.24 191.338 101.24 192.124 101.063 192.735 100.711 193.172 100.362 193.605 99.8763 193.822 99.2537 193.822 98.9423 193.822 98.6572 193.765 98.3982 193.652 98.1422 193.535 97.9268 193.358 97.7523 193.119H97.6999L97.5471 193.735H97.0277V186.943H97.7523V188.593C97.7523 188.963 97.7406 189.294 97.7173 189.588H97.7523C98.0898 189.111 98.5902 188.873 99.2537 188.873zM99.1489 189.479C98.6543 189.479 98.2978 189.622 98.0796 189.907 97.8614 190.189 97.7523 190.666 97.7523 191.338 97.7523 192.011 97.8643 192.492 98.0883 192.783 98.3124 193.071 98.6717 193.215 99.1664 193.215 99.6116 193.215 99.9433 193.054 100.161 192.731 100.38 192.405 100.489 191.938 100.489 191.33 100.489 190.707 100.38 190.243 100.161 189.937 99.9433 189.632 99.6057 189.479 99.1489 189.479z" fill="#fff"/><path d="M55.5217 195.415C55.2482 195.415 55.0329 195.376 54.8757 195.297V194.664C55.0823 194.722 55.2977 194.752 55.5217 194.752 55.8098 194.752 56.028 194.664 56.1764 194.49 56.3277 194.315 56.4033 194.063 56.4033 193.735v-6.381H57.1453V193.674C57.1453 194.226 57.0056 194.654 56.7263 194.957 56.447 195.262 56.0454 195.415 55.5217 195.415zM61.6757 193.735 61.5317 193.054H61.4968C61.2582 193.353 61.0196 193.557 60.781 193.665 60.5453 193.77 60.25 193.822 59.895 193.822 59.4207 193.822 59.0483 193.7 58.7777 193.455 58.51 193.211 58.3761 192.863 58.3761 192.412 58.3761 191.446 59.1486 190.94 60.6937 190.893L61.5055 190.867V190.57C61.5055 190.195 61.424 189.919 61.2611 189.741 61.1011 189.561 60.8435 189.47 60.4886 189.47 60.0899 189.47 59.6389 189.593 59.1355 189.837L58.913 189.283C59.1486 189.155 59.4062 189.054 59.6855 188.982 59.9677 188.909 60.25 188.873 60.5322 188.873 61.1025 188.873 61.5244 188.999 61.7979 189.252 62.0743 189.505 62.2126 189.911 62.2126 190.47V193.735H61.6757zM60.039 193.224C60.49 193.224 60.8435 193.1 61.0996 192.853 61.3586 192.606 61.488 192.259 61.488 191.814V191.382L60.7635 191.413C60.1874 191.433 59.7713 191.523 59.5153 191.683 59.2621 191.84 59.1355 192.086 59.1355 192.421 59.1355 192.683 59.2141 192.882 59.3712 193.019 59.5313 193.156 59.7539 193.224 60.039 193.224zM66.983 193.735V190.64C66.983 190.25 66.8943 189.959 66.7168 189.767 66.5393 189.575 66.2614 189.479 65.8832 189.479 65.3827 189.479 65.0161 189.614 64.7833 189.885 64.5505 190.156 64.4341 190.602 64.4341 191.225V193.735H63.7096V188.951H64.2988L64.4167 189.606H64.4516C64.6 189.37 64.808 189.188 65.0757 189.06 65.3434 188.929 65.6416 188.864 65.9704 188.864 66.5466 188.864 66.9801 189.003 67.2711 189.283 67.562 189.559 67.7075 190.003 67.7075 190.614V193.735H66.983z" fill="#fff"/></g><g opacity=".1"><path d="M46.8074 114.567H207.702" stroke="#ede9f2" stroke-width=".44693"/><path d="M46.8074 69.8736H207.702" stroke="#ede9f2" stroke-width=".44693"/><path d="M46.8074 92.22H207.702" stroke="#ede9f2" stroke-width=".44693"/><path d="M46.8074 136.913H207.702" stroke="#ede9f2" stroke-width=".44693"/><path d="M46.8074 159.26H207.702" stroke="#ede9f2" stroke-width=".44693"/><path d="M46.8074 181.606H207.702" stroke="#ede9f2" stroke-width=".44693"/></g><g opacity=".2" clip-path="url(#clip2)"><path d="M34.2812 85.3618C34.8631 85.3618 35.3243 85.4971 35.6647 85.7677 36.0052 86.0383 36.1754 86.4122 36.1754 86.8894 36.1754 87.2037 36.0779 87.4903 35.883 87.7492 35.688 88.0082 35.3767 88.2439 34.9489 88.4563 35.4669 88.7036 35.8349 88.9641 36.0532 89.2376 36.2714 89.5082 36.3805 89.8224 36.3805 90.1803 36.3805 90.7099 36.1957 91.1332 35.8262 91.4504 35.4567 91.7646 34.9504 91.9218 34.3073 91.9218 33.6265 91.9218 33.1027 91.7734 32.7361 91.4766 32.3695 91.1769 32.1862 90.7535 32.1862 90.2065 32.1862 89.4762 32.6314 88.9073 33.5217 88.5 33.1202 88.273 32.8321 88.0286 32.6575 87.7667 32.483 87.5019 32.3957 87.2066 32.3957 86.8807 32.3957 86.4181 32.5659 86.05 32.9063 85.7765 33.2497 85.5 33.708 85.3618 34.2812 85.3618zM32.902 90.224C32.902 90.5731 33.0227 90.8452 33.2642 91.0401 33.5086 91.2351 33.8505 91.3325 34.2899 91.3325 34.7234 91.3325 35.061 91.2307 35.3025 91.027 35.544 90.8234 35.6647 90.544 35.6647 90.189 35.6647 89.9068 35.5512 89.6566 35.3243 89.4383 35.0973 89.2172 34.7016 89.0033 34.1371 88.7967 33.7036 88.983 33.3893 89.1896 33.1944 89.4165 32.9994 89.6406 32.902 89.9097 32.902 90.224zM34.2724 85.9511C33.9087 85.9511 33.6236 86.0383 33.417 86.2129 33.2104 86.3875 33.1071 86.6203 33.1071 86.9113 33.1071 87.1789 33.1929 87.4088 33.3646 87.6009 33.5363 87.7929 33.8534 87.9849 34.3161 88.177 34.7322 88.0024 35.026 87.8147 35.1977 87.6139 35.3723 87.4132 35.4596 87.1789 35.4596 86.9113 35.4596 86.6174 35.3534 86.3846 35.141 86.2129 34.9315 86.0383 34.642 85.9511 34.2724 85.9511zM42.3338 91.8345H41.4609L39.1345 88.74 38.4668 89.3336V91.8345H37.7248v-6.381H38.4668V88.6178L41.3605 85.4535H42.2377L39.6714 88.225 42.3338 91.8345z" fill="#fff"/><path d="M36.3631 158.874H32.1687V158.25L33.8491 156.561C34.3612 156.043 34.6987 155.673 34.8616 155.452 35.0246 155.231 35.1468 155.016 35.2283 154.806 35.3097 154.597 35.3505 154.371 35.3505 154.13 35.3505 153.789 35.2472 153.52 35.0406 153.322 34.834 153.122 34.5474 153.021 34.1808 153.021 33.916 153.021 33.6643 153.065 33.4257 153.152 33.19 153.24 32.9267 153.398 32.6357 153.628L32.2516 153.135C32.8394 152.646 33.4795 152.402 34.172 152.402 34.7714 152.402 35.2414 152.556 35.5818 152.864 35.9222 153.17 36.0925 153.581 36.0925 154.099 36.0925 154.504 35.979 154.904 35.752 155.3 35.5251 155.695 35.1002 156.196 34.4776 156.801L33.0809 158.167V158.202H36.3631V158.874zM42.3338 158.874H41.4609L39.1345 155.78 38.4668 156.373V158.874H37.7248v-6.381H38.4668V155.657L41.3605 152.493H42.2377L39.6714 155.265 42.3338 158.874z" fill="#fff"/><path d="M41.8886 178.021C41.8886 179.124 41.714 179.948 41.3648 180.492 41.0186 181.036 40.4876 181.308 39.7718 181.308 39.0851 181.308 38.5628 181.03 38.2049 180.474 37.847 179.916 37.6681 179.098 37.6681 178.021 37.6681 176.91 37.8412 176.085 38.1874 175.547 38.5337 175.008 39.0618 174.739 39.7718 174.739 40.4643 174.739 40.9895 175.02 41.3474 175.582 41.7082 176.143 41.8886 176.956 41.8886 178.021zM38.4013 178.021C38.4013 178.95 38.5104 179.626 38.7286 180.051 38.9469 180.473 39.2946 180.684 39.7718 180.684 40.2548 180.684 40.6039 180.47 40.8193 180.042 41.0375 179.612 41.1466 178.938 41.1466 178.021 41.1466 177.105 41.0375 176.434 40.8193 176.009 40.6039 175.582 40.2548 175.368 39.7718 175.368 39.2946 175.368 38.9469 175.579 38.7286 176.001 38.5104 176.42 38.4013 177.093 38.4013 178.021z" fill="#fff"/><path d="M32.2429 111.453C32.2429 110.199 32.4859 109.262 32.9718 108.642 33.4606 108.02 34.1822 107.708 35.1366 107.708 35.4654 107.708 35.7244 107.736 35.9135 107.791V108.415C35.6895 108.343 35.4334 108.306 35.1453 108.306 34.4616 108.306 33.9393 108.52 33.5785 108.948 33.2177 109.373 33.0198 110.042 32.9849 110.956H33.0373C33.3573 110.455 33.8636 110.205 34.5561 110.205 35.1293 110.205 35.5803 110.378 35.9091 110.724 36.2408 111.071 36.4067 111.54 36.4067 112.134 36.4067 112.797 36.2248 113.32 35.8611 113.701 35.5003 114.079 35.0115 114.268 34.3946 114.268 33.7341 114.268 33.2104 114.021 32.8234 113.526 32.4364 113.029 32.2429 112.338 32.2429 111.453zM34.3859 113.653C34.7991 113.653 35.1192 113.523 35.3461 113.264 35.576 113.003 35.6909 112.626 35.6909 112.134 35.6909 111.712 35.5847 111.38 35.3723 111.139 35.1599 110.897 34.8427 110.777 34.4208 110.777 34.159 110.777 33.9189 110.831 33.7007 110.938 33.4824 111.046 33.3079 111.194 33.1769 111.383 33.0489 111.572 32.9849 111.769 32.9849 111.973 32.9849 112.272 33.0431 112.552 33.1595 112.811 33.2759 113.07 33.4403 113.275 33.6527 113.426 33.868 113.577 34.1124 113.653 34.3859 113.653zM42.3338 114.181H41.4609L39.1345 111.087 38.4668 111.68V114.181H37.7248V107.8H38.4668V110.964L41.3605 107.8H42.2377L39.6714 110.572 42.3338 114.181z" fill="#fff"/><path d="M29.7377 69.488H29.0306V64.9402C29.0306 64.5619 29.0422 64.204 29.0655 63.8665 29.0044 63.9276 28.936 63.9916 28.8604 64.0585 28.7847 64.1255 28.4385 64.4092 27.8216 64.9096L27.4375 64.4121 29.1266 63.1071H29.7377V69.488zM36.398 66.2888C36.398 67.3916 36.2234 68.215 35.8742 68.7592 35.528 69.3033 34.9969 69.5753 34.2812 69.5753 33.5945 69.5753 33.0722 69.2975 32.7143 68.7417 32.3564 68.183 32.1774 67.3654 32.1774 66.2888 32.1774 65.1773 32.3506 64.3524 32.6968 63.8141 33.0431 63.2758 33.5712 63.0067 34.2812 63.0067 34.9737 63.0067 35.4989 63.2875 35.8568 63.849 36.2176 64.4106 36.398 65.2239 36.398 66.2888zM32.9107 66.2888C32.9107 67.217 33.0198 67.8935 33.238 68.3183 33.4563 68.7402 33.804 68.9512 34.2812 68.9512 34.7642 68.9512 35.1133 68.7373 35.3286 68.3096 35.5469 67.879 35.656 67.2054 35.656 66.2888 35.656 65.3723 35.5469 64.7016 35.3286 64.2768 35.1133 63.849 34.7642 63.6352 34.2812 63.6352 33.804 63.6352 33.4563 63.8461 33.238 64.268 33.0198 64.687 32.9107 65.3606 32.9107 66.2888zM42.3338 69.488H41.4608L39.1345 66.3936 38.4668 66.9871V69.488H37.7248V63.1071H38.4668V66.2714L41.3605 63.1071H42.2377L39.6714 65.8786 42.3338 69.488z" fill="#fff"/><path d="M36.6642 135.061H35.7171V136.528H35.0231V135.061H31.9199V134.428L34.9489 130.112H35.7171V134.402H36.6642V135.061zM35.0231 134.402V132.281C35.0231 131.865 35.0377 131.395 35.0668 130.871H35.0319C34.8922 131.15 34.7613 131.382 34.6391 131.565L32.6445 134.402H35.0231zM42.3338 136.528H41.4609L39.1345 133.433 38.4668 134.027V136.528H37.7248v-6.381H38.4668V133.311L41.3605 130.147H42.2377L39.6714 132.918 42.3338 136.528z" fill="#fff"/></g><path d="M123.679 129.315C123.679 127.834 124.88 126.634 126.361 126.634 127.842 126.634 129.043 127.834 129.043 129.315V181.159H123.679V129.315z" fill="#8476aa"/><path d="M131 144.5C131 143.119 132.119 142 133.5 142 134.881 142 136 143.119 136 144.5V181h-5V144.5z" fill="#99efd0"/><path d="M91.5005 114.12C91.5005 112.639 92.701 111.438 94.182 111.438 95.663 111.438 96.8636 112.639 96.8636 114.12V181.159H91.5005V114.12z" fill="#8476aa"/><path d="M99 134.5C99 133.119 100.119 132 101.5 132 102.881 132 104 133.119 104 134.5V181H99V134.5z" fill="#99efd0"/><path d="M188.037 76.5775C188.037 75.0965 189.238 73.8959 190.719 73.8959 192.2 73.8959 193.401 75.0965 193.401 76.5775V181.159H188.037V76.5775z" fill="#8476aa"/><path d="M195 107.5C195 106.119 196.119 105 197.5 105 198.881 105 2e2 106.119 2e2 107.5V181h-5V107.5z" fill="#99efd0"/><path d="M59.3215 149.874C59.3215 148.393 60.5221 147.193 62.0031 147.193 63.4841 147.193 64.6846 148.393 64.6846 149.874V181.159H59.3215V149.874z" fill="#8476aa"/><path d="M66 160C66 158.343 67.3431 157 69 157 70.6569 157 72 158.343 72 160v21H66V160z" fill="#99efd0"/><path d="M155.858 88.1977C155.858 86.7167 157.059 85.5161 158.54 85.5161 160.021 85.5161 161.222 86.7167 161.222 88.1977V181.159H155.858V88.1977z" fill="#8476aa"/><path d="M163 115.5C163 114.119 164.119 113 165.5 113 166.881 113 168 114.119 168 115.5V181h-5V115.5z" fill="#99efd0"/></g><defs><filter id="filter0_d" x="-60.4559" y="-38.7305" width="339.667" height="332.516" filterUnits="userSpaceOnUse" color-interpolation-filters="sRGB"><feFlood flood-opacity="0" result="BackgroundImageFix"/><feColorMatrix in="SourceAlpha" type="matrix" values="0 0 0 0 0 0 0 0 0 0 0 0 0 0 0 0 0 0 127 0"/><feOffset dx="-7.15089" dy="14.3018"/><feGaussianBlur stdDeviation="26.8158"/><feColorMatrix type="matrix" values="0 0 0 0 0.322856 0 0 0 0 0.446289 0 0 0 0 0.545035 0 0 0 0.24 0"/><feBlend mode="normal" in2="BackgroundImageFix" result="effect1_dropShadow"/><feBlend mode="normal" in="SourceGraphic" in2="effect1_dropShadow" result="shape"/></filter><clipPath id="clip0"><path d="M0 0h232.404v225.253H0z" fill="#fff" transform="translate(0.326653 0.599365)"/></clipPath><clipPath id="clip1"><path d="M0 0h146.593v12.5141H0z" fill="#fff" transform="translate(53.0645 184.735)"/></clipPath><clipPath id="clip2"><path d="M0 0h16.0895v124.247H0z" fill="#fff" transform="translate(26.2486 60.488)"/></clipPath></defs></svg>