<svg width="36" height="36" viewBox="0 0 36 36" fill="none" xmlns="http://www.w3.org/2000/svg"><path opacity=".3" fill-rule="evenodd" clip-rule="evenodd" d="M10.8843 28.3938 8.96833 30.7023C5.21539 27.5875 3 22.9731 3 18 3 13.0339 5.20923 8.42518 8.95328 5.3103L10.872 7.61653C7.8059 10.1673 6 13.9346 6 18 6 22.0711 7.81094 25.843 10.8843 28.3938zm14.2314.0L27.0317 30.7023C30.7846 27.5875 33 22.9731 33 18 33 13.0339 30.7908 8.42518 27.0467 5.3103L25.128 7.61653C28.1941 10.1673 30 13.9346 30 18 30 22.0711 28.1891 25.843 25.1157 28.3938zM21.2677 23.7899 23.1763 26.1045C25.5793 24.123 27 21.1761 27 18 27 14.8344 25.5886 11.8961 23.1992 9.91448L21.2841 12.2237C22.9934 13.6413 24 15.7369 24 18 24 20.2707 22.9868 22.3724 21.2677 23.7899zM12.8237 26.1045 14.7323 23.7899C13.0132 22.3724 12 20.2707 12 18 12 15.7369 13.0066 13.6413 14.7159 12.2237L12.8008 9.91448C10.4114 11.8961 9 14.8344 9 18 9 21.1761 10.4207 24.123 12.8237 26.1045z" fill="#99efd0"/><path fill-rule="evenodd" clip-rule="evenodd" d="M18 21C19.6569 21 21 19.6569 21 18 21 16.3431 19.6569 15 18 15 16.3431 15 15 16.3431 15 18 15 19.6569 16.3431 21 18 21z" fill="#99efd0"/></svg>