<svg width="36" height="36" viewBox="0 0 36 36" fill="none" xmlns="http://www.w3.org/2000/svg"><path opacity=".3" fill-rule="evenodd" clip-rule="evenodd" d="M23.6764 21H30V3C25.0294 3 21 7.02944 21 12V18.2573L11.7426 8.99997C9.3995 11.3431 9.3995 15.1421 11.7426 17.4853L19.4669 25.2095 23.6764 21z" fill="#99efd0"/><path fill-rule="evenodd" clip-rule="evenodd" d="M6.5 18C3.73858 18 1.5 20.2386 1.5 23v3.5C1.5 29.2614 3.73858 31.5 6.5 31.5h23C32.2614 31.5 34.5 29.2614 34.5 26.5V23C34.5 20.2386 32.2614 18 29.5 18H6.5zm25 6.75C31.5 25.9926 30.4926 27 29.25 27 28.0074 27 27 25.9926 27 24.75 27 23.5074 28.0074 22.5 29.25 22.5 30.4926 22.5 31.5 23.5074 31.5 24.75z" fill="#99efd0"/></svg>