<svg width="118" height="26" viewBox="0 0 118 26" fill="none" xmlns="http://www.w3.org/2000/svg"><g clip-path="url(#clip0)"><path d="M8.92543 14.1456 15.8714 25.114C15.9535 25.2395 16.0664 25.3414 16.1992 25.4097 16.332 25.4781 16.4801 25.5106 16.629 25.504H19.2023C19.3184 25.5054 19.4336 25.4834 19.5412 25.4393 19.6488 25.3951 19.7465 25.3299 19.8287 25.2472 19.9109 25.1645 19.9759 25.0661 20.0199 24.9578 20.0639 24.8495 20.086 24.7334 20.0849 24.6164V1.38759C20.0832 1.20234 20.0246 1.02218 19.9172.871811 19.8099.721445 19.6589.608241 19.4853.547724 19.3115.487207 19.1235.482341 18.9469.533792 18.7704.585243 18.6139.690493 18.499.835106L8.92543 13.0792C8.8217 13.2373 8.76639 13.4227 8.76639 13.6124 8.76639 13.8019 8.8217 13.9874 8.92543 14.1456z" fill="#fff"/><path d="M1.11699 25.5002H5.69928C5.81539 25.5016 5.9306 25.4795 6.03816 25.4355 6.14571 25.3913 6.24346 25.326 6.32566 25.2434 6.40786 25.1607 6.47287 25.0623 6.51683 24.954 6.56086 24.8457 6.58299 24.7297 6.58188 24.6126V18.7221C6.57909 18.5371 6.51969 18.3575 6.41194 18.2077 6.30417 18.0579 6.15321 17.9452 5.97963 17.8851 5.80604 17.8249 5.61827 17.8201 5.4419 17.8714 5.26553 17.9227 5.10913 18.0275 4.994 18.1717L.411716 24.0622C.313906 24.1954.254432 24.3533.239831 24.5184.22523 24.6835.256065 24.8495.328949 24.9982.401833 25.1468.513946 25.2722.65297 25.3608.791993 25.4494.952548 25.4977 1.11699 25.5002z" fill="#fff"/><path d="M82.9613 12.2564C82.9092 12.1917 82.8516 12.1313 82.7902 12.0756L82.6953 11.9944 82.6469 11.9517C82.4287 11.7664 82.1912 11.6044 81.9395 11.4682 81.6667 11.3034 81.3777 11.1672 81.0776 11.062 80.7701 10.9513 80.4539 10.8671 80.1321 10.8102 79.3018 10.6613 78.4487 10.7051 77.6376 10.9381 77.1528 11.0763 76.6871 11.2749 76.2512 11.5292 75.8228 11.7822 75.4278 12.0894 75.0763 12.4432 74.7259 12.8002 74.4172 13.1961 74.1555 13.6234 73.8895 14.0537 73.6861 14.5202 73.551 15.0086 73.2651 16.0189 73.2651 17.0898 73.551 18.1001 73.6892 18.5867 73.8926 19.0521 74.1555 19.4834 74.4172 19.9106 74.7259 20.3065 75.0763 20.6635 75.4297 21.0178 75.8253 21.3256 76.255 21.5796 76.6921 21.8267 77.1552 22.0242 77.6358 22.1686 78.4673 22.4188 79.3465 22.4627 80.199 22.2966 80.5264 22.242 80.847 22.15 81.1539 22.0224 81.4484 21.9012 81.733 21.758 82.0064 21.5938 82.2774 21.4308 82.5391 21.2511 82.7883 21.0555 82.8596 20.9925 82.9272 20.9247 82.9898 20.8524L83.0221 20.8159C83.0816 20.7441 83.1269 20.6612 83.1548 20.5721L83.1672 20.499C83.1734 20.382 83.1461 20.2656 83.0884 20.1638L83.0599 20.1191C83.0382 20.0832 83.0134 20.0492 82.9855 20.0176L82.9111 19.916C82.7617 19.7129 82.6209 19.5098 82.4696 19.3229 82.4057 19.2487 82.3258 19.1904 82.2359 19.1523 82.1466 19.1218 82.0492 19.1218 81.9599 19.1523 81.8316 19.2099 81.715 19.2904 81.6152 19.3899L81.4825 19.5037C81.3511 19.6134 81.281 19.6845 81.0975 19.8144 80.9325 19.9412 80.754 20.0496 80.5655 20.1374 80.3621 20.2419 80.1463 20.3184 79.9225 20.3649 79.1871 20.5254 78.4207 20.4442 77.7344 20.1334 77.2929 19.9331 76.8924 19.6529 76.5513 19.3067 76.2016 18.9527 75.922 18.535 75.7273 18.0757 75.5202 17.6097 75.4129 17.1047 75.4129 16.594 75.4129 16.0832 75.5202 15.5783 75.7273 15.1122 75.9238 14.6506 76.2022 14.2293 76.5495 13.8691 76.8948 13.5207 77.296 13.2337 77.7362 13.0201 78.3736 12.7152 79.0929 12.6296 79.7836 12.7764 80.0149 12.8297 80.2412 12.9017 80.4607 12.9917 80.6703 13.0812 80.8724 13.1872 81.0652 13.3086 81.4682 13.5482 81.9234 14.2347 82.3648 13.6904L83.0035 12.8251C83.0339 12.7837 83.0549 12.7366 83.0661 12.6867 83.0779 12.6368 83.0791 12.5851 83.0704 12.5346 83.0593 12.4338 83.0214 12.3377 82.9613 12.2564z" fill="#fff"/><path d="M43.6674 21.4642 36.6791 5.43594C36.6322 5.31692 36.5512 5.2147 36.4464 5.14234 36.3415 5.06997 36.2177 5.03075 36.0907 5.0297H34.9703C34.845 5.02919 34.7224 5.06618 34.6181 5.13597 34.5136 5.20576 34.4322 5.30521 34.3839 5.42172L27.3815 21.4458C27.3334 21.5438 27.3118 21.653 27.3188 21.7621 27.3259 21.8712 27.3614 21.9765 27.4218 22.0674 27.4789 22.1602 27.5588 22.2367 27.6538 22.2893 27.7487 22.342 27.8555 22.3691 27.9639 22.368H28.9976C29.1236 22.3706 29.2473 22.3345 29.3524 22.2645 29.4575 22.1944 29.539 22.0938 29.586 21.976L31.2666 18.0212H39.7601L41.4306 21.976C41.4776 22.0953 41.559 22.1978 41.6642 22.2701 41.7694 22.3425 41.8937 22.3816 42.021 22.3822H43.0286C43.1331 22.3889 43.2375 22.3692 43.3326 22.3248 43.4276 22.2805 43.5101 22.213 43.5727 22.1283 43.6463 22.0365 43.694 21.9263 43.7106 21.8093 43.7273 21.6925 43.7124 21.5732 43.6674 21.4642zM32.1613 15.9799 32.1895 15.9169 35.5567 8.01759 38.934 15.9799H32.1613z" fill="#fff"/><path d="M107.652 14.7651C107.478 14.1449 107.206 13.5571 106.846 13.0244 106.58 12.6659 106.275 12.3394 105.935 12.0514 105.613 11.7626 105.248 11.5268 104.853 11.3527 104.467 11.1586 104.063 11.0074 103.644 10.9018 102.71 10.6699 101.732 10.6888 100.807 10.9566 100.332 11.0896 99.8779 11.2878 99.4569 11.5456 99.0402 11.8071 98.6558 12.1166 98.3104 12.4678 97.9713 12.8188 97.6829 13.2168 97.456 13.6499 97.2142 14.091 97.0294 14.5613 96.906 15.0494 96.6903 15.8268 96.6475 16.6424 96.7808 17.4381 96.8155 17.7491 96.875 18.0568 96.9581 18.3583 97.1317 18.9799 97.4039 19.5691 97.7642 20.1031 98.0295 20.4609 98.3352 20.7867 98.675 21.074 98.998 21.3633 99.3639 21.5997 99.7588 21.7748 100.144 21.9691 100.55 22.1197 100.968 22.2237 102.393 22.5748 103.898 22.3433 105.153 21.5798 105.57 21.3189 105.954 21.0101 106.3 20.6596 106.629 20.3226 106.907 19.9379 107.124 19.5181L107.142 19.4775C107.183 19.4223 107.207 19.3567 107.213 19.2881 107.219 19.2196 107.205 19.1508 107.174 19.0895 107.149 19.0429 107.112 19.0038 107.067 18.976 107.023 18.9482 106.971 18.9328 106.918 18.9311H105.248C105.178 18.9294 105.108 18.9441 105.044 18.9741 104.98 19.004 104.924 19.0484 104.879 19.1038 104.669 19.361 104.423 19.5867 104.15 19.7741 103.857 19.9625 103.539 20.1069 103.205 20.2026 102.463 20.4191 101.673 20.3964 100.946 20.1376 100.559 19.9958 100.194 19.7959 99.8661 19.5445 99.5468 19.2892 99.282 18.9723 99.0861 18.6122 98.9149 18.223 98.794 17.8134 98.7252 17.3934L98.7153 17.3407H98.7717L107.356 17.3224C107.708 17.3224 107.908 17.103 107.908 16.713 107.932 16.0539 107.845 15.3954 107.652 14.7651zM105.825 15.5309 98.8784 15.5634 98.8963 15.5044C99.0123 15.1091 99.1853 14.7333 99.4104 14.3893 99.685 13.981 100.033 13.6288 100.438 13.3514 100.733 13.1608 101.054 13.015 101.391 12.9188 102.132 12.7023 102.922 12.725 103.65 12.9838 104.038 13.1256 104.402 13.3255 104.73 13.5768 105.051 13.8336 105.317 14.1527 105.512 14.5153 105.682 14.8142 105.804 15.1385 105.873 15.476L105.885 15.5309H105.825z" fill="#fff"/><path d="M55.9996 20.6495C56.3455 20.2927 56.6491 19.8967 56.9044 19.4694 57.1571 19.0301 57.3541 18.5606 57.4908 18.0719 57.775 17.062 57.775 15.9924 57.4908 14.9824 57.3541 14.4937 57.1571 14.0242 56.9044 13.585 56.3986 12.7176 55.6814 11.9946 54.8208 11.4847 54.3899 11.2331 53.9305 11.0347 53.4526 10.8936 52.2198 10.5339 50.9013 10.6172 49.7227 11.1292 49.2266 11.3567 48.7636 11.6512 48.3464 12.0047L48.2718 12.0677V11.4421C48.2805 11.3646 48.2718 11.2861 48.2462 11.2124 48.2206 11.1387 48.1788 11.0719 48.124 11.0168 48.0691 10.9617 48.0026 10.9199 47.9295 10.8943 47.8564 10.8687 47.7784 10.8602 47.7015 10.8692H46.823C46.7453 10.8599 46.6666 10.8681 46.5924 10.8933 46.5183 10.9186 46.4507 10.9601 46.3945 11.0149 46.3383 11.0698 46.295 11.1366 46.2677 11.2106 46.2403 11.2844 46.2297 11.3635 46.2366 11.4421V24.9252C46.2341 24.9998 46.2467 25.0741 46.2733 25.1437 46.2999 25.2134 46.3402 25.2769 46.3918 25.3305 46.4433 25.3842 46.505 25.4269 46.5732 25.4559 46.6413 25.485 46.7147 25.5 46.7887 25.5H47.6854C47.8431 25.5047 47.9965 25.4472 48.1126 25.3395 48.1651 25.2862 48.2062 25.2227 48.2336 25.1529 48.2609 25.083 48.274 25.0084 48.2718 24.9333V20.9927L48.3464 21.0557C48.7577 21.4048 49.2155 21.694 49.7066 21.9149 50.8845 22.4268 52.2023 22.5101 53.4345 22.1505 53.9193 22.0127 54.3851 21.8141 54.8208 21.5595 55.2512 21.3089 55.6474 21.003 55.9996 20.6495zM53.3337 20.0848C52.8875 20.2941 52.4012 20.4025 51.9091 20.4025 51.4169 20.4025 50.9306 20.2941 50.4844 20.0848 50.0363 19.8815 49.6339 19.5885 49.3015 19.2236 48.9602 18.8627 48.6871 18.4422 48.4955 17.9825 48.302 17.5171 48.2024 17.0175 48.2024 16.5129 48.2024 16.0084 48.302 15.5088 48.4955 15.0434 48.69 14.592 48.963 14.1793 49.3015 13.8247 49.6403 13.4714 50.0414 13.1848 50.4844 12.9797 50.9304 12.771 51.4163 12.6629 51.908 12.6629 52.3998 12.6629 52.8856 12.771 53.3317 12.9797 53.7681 13.187 54.1635 13.4726 54.4984 13.8226 54.8314 14.1784 55.0988 14.5911 55.2883 15.0414 55.4828 15.5061 55.583 16.0055 55.583 16.5099 55.583 17.0144 55.4828 17.5137 55.2883 17.9785 55.095 18.4357 54.8273 18.8572 54.4964 19.2256 54.1678 19.5853 53.7729 19.8771 53.3337 20.0848z" fill="#fff"/><path d="M61.5351 10.8855H60.6566C60.578 10.8759 60.4982 10.8843 60.4233 10.91 60.3484 10.9358 60.2802 10.9783 60.2238 11.0343 60.1674 11.0904 60.1243 11.1585 60.0977 11.2337 60.0711 11.3088 60.0617 11.3891 60.0702 11.4684V24.9333C60.0684 25.0083 60.0816 25.0829 60.1089 25.1527 60.1362 25.2224 60.1772 25.286 60.2294 25.3395 60.281 25.3913 60.3423 25.4322 60.4097 25.4598 60.4773 25.4873 60.5495 25.501 60.6223 25.5H61.517C61.6748 25.5048 61.828 25.4471 61.9442 25.3395 61.9971 25.2865 62.0384 25.223 62.0658 25.1531 62.0932 25.0833 62.106 25.0084 62.1034 24.9333V20.9928L62.178 21.0557C62.5899 21.4052 63.0481 21.6944 63.5405 21.9149 64.7179 22.4269 66.0361 22.5103 67.2681 22.1505 67.753 22.0123 68.2187 21.8138 68.6545 21.5594 69.0842 21.3043 69.4804 20.9951 69.8332 20.6393 70.1786 20.2825 70.4812 19.8865 70.736 19.4592 70.9884 19.0199 71.1855 18.5504 71.3226 18.0618 71.6084 17.0521 71.6084 15.9819 71.3226 14.9723 71.1862 14.4834 70.989 14.0139 70.736 13.5748 70.2313 12.7071 69.5145 11.984 68.6545 11.4746 68.2224 11.2233 67.7623 11.0249 67.2843 10.8834 66.0516 10.5239 64.7328 10.6072 63.5541 11.1191 63.0581 11.3466 62.5949 11.6411 62.178 11.9945L62.0974 12.0778V11.4684C62.1075 11.3909 62.1001 11.312 62.0757 11.2378 62.0512 11.1635 62.0104 11.0958 61.9564 11.0397 61.9022 10.9836 61.8363 10.9406 61.7633 10.9139 61.6904 10.8871 61.6123 10.8774 61.5351 10.8855zM62.3289 15.0576C62.5242 14.6064 62.797 14.1938 63.1349 13.8389 63.4723 13.4833 63.8722 13.1939 64.3136 12.9858 64.7601 12.7771 65.2456 12.6689 65.7379 12.6689 66.2296 12.6689 66.7151 12.7771 67.1615 12.9858 67.6036 13.1924 68.0041 13.4788 68.3439 13.8308 68.6769 14.1866 68.9447 14.5993 69.1338 15.0494 69.3292 15.5141 69.4296 16.0135 69.4296 16.518 69.4296 17.0225 69.3292 17.5219 69.1338 17.9866 68.9429 18.4455 68.675 18.868 68.342 19.2358 68.0134 19.5951 67.6185 19.8869 67.1795 20.0949 66.7324 20.3038 66.2463 20.4119 65.754 20.4119 65.2611 20.4119 64.775 20.3038 64.3279 20.0949 63.8809 19.8909 63.4791 19.5979 63.1474 19.2338 62.8057 18.8732 62.5323 18.4526 62.3413 17.9927 62.1465 17.5286 62.0453 17.0302 62.0432 16.5263 62.0411 16.0225 62.1383 15.5233 62.3289 15.0576z" fill="#fff"/><path d="M94.54 11.3019C94.548 11.2231 94.5381 11.1435 94.5114 11.069 94.4842 10.9946 94.4414 10.9273 94.385 10.8722 94.3285 10.817 94.2603 10.7755 94.1853 10.7507 94.1109 10.7259 94.0315 10.7185 93.9534 10.7291H93.0692C92.9923 10.72 92.9142 10.7286 92.8411 10.7542 92.7679 10.7797 92.7015 10.8215 92.6464 10.8767 92.5918 10.9317 92.5503 10.9985 92.5242 11.0722 92.4988 11.1459 92.4901 11.2244 92.4988 11.3019v6.4633C92.5062 18.1439 92.4244 18.519 92.2607 18.86 92.1206 19.1719 91.9141 19.4492 91.6568 19.6725 91.405 19.8816 91.1211 20.047 90.816 20.162 90.4737 20.2898 90.1098 20.346 89.7452 20.3272 89.3806 20.3083 89.0235 20.2148 88.6961 20.0523 88.3861 19.8904 88.117 19.6582 87.9105 19.3739 87.7046 19.1034 87.5583 18.7917 87.4814 18.4599 87.3971 18.1223 87.3524 17.776 87.3481 17.428V11.4684C87.358 11.2735 87.3121 11.0799 87.2173 10.9099 87.1454 10.8356 87.0579 10.7788 86.9612 10.7436 86.8645 10.7084 86.7616 10.6958 86.6592 10.7067H86.0225C85.9276 10.7035 85.8327 10.7199 85.7447 10.7549 85.656 10.7898 85.576 10.8425 85.5085 10.9099 85.4378 10.9892 85.3832 11.082 85.3491 11.1829 85.3144 11.2837 85.3001 11.3904 85.3069 11.4969V17.4463C85.2995 18.0961 85.3962 18.7429 85.5934 19.3617 85.7788 19.938 86.0721 20.4731 86.4577 20.9379 86.8428 21.3927 87.3252 21.7539 87.8683 21.9941 88.8126 22.3822 89.85 22.4819 90.8507 22.2805 91.1204 22.2149 91.3846 22.1245 91.6382 22.0104 91.875 21.8996 92.0945 21.7545 92.2892 21.5797L92.4281 21.4497 92.505 21.3746V21.8275C92.5031 21.8943 92.5143 21.9607 92.5385 22.0229 92.5633 22.085 92.5992 22.1415 92.6457 22.1891 92.6991 22.2558 92.7673 22.3089 92.8448 22.3442 92.9217 22.3794 93.0066 22.3959 93.0909 22.3922H93.9856C94.0588 22.3937 94.1307 22.3805 94.1983 22.3533 94.2659 22.326 94.3273 22.2854 94.3788 22.2338 94.4352 22.1834 94.4792 22.1205 94.5071 22.0499 94.535 21.9794 94.5462 21.9032 94.54 21.8275V11.3019z" fill="#fff"/><path d="M117.034 17.6271C116.848 17.2344 116.579 16.8877 116.244 16.6116 115.879 16.3114 115.472 16.0671 115.035 15.8864 114.542 15.6799 114.031 15.5208 113.508 15.4111 113.253 15.3529 113.002 15.2762 112.759 15.1816 112.538 15.1005 112.328 14.9927 112.134 14.8607 111.871 14.7009 111.667 14.4591 111.553 14.1721 111.487 13.9613 111.487 13.7349 111.553 13.5241 111.624 13.2865 111.922 12.6324 113.075 12.5593 114.177 12.4902 114.731 13.0732 114.922 13.3332 114.951 13.3697 115.221 13.7212 115.414 13.9426 115.449 13.9743 115.488 14.0016 115.529 14.0238 115.608 14.0547 115.694 14.0651 115.778 14.0541 115.862 14.0431 115.942 14.0111 116.011 13.9608L116.684 13.4571C116.757 13.4131 116.817 13.3506 116.859 13.2758 116.902 13.201 116.924 13.1165 116.923 13.0306V13.0102C116.894 12.8797 116.842 12.7553 116.77 12.6426 116.572 12.3553 116.356 12.08 116.125 11.8179 115.92 11.5741 115.68 11.3625 115.412 11.1903 115.135 11.0169 114.833 10.8862 114.518 10.8023 113.619 10.5727 112.672 10.6094 111.793 10.9079 111.349 11.0417 110.938 11.2664 110.584 11.5681 110.246 11.8507 109.976 12.2061 109.792 12.6081 109.609 13.0104 109.512 13.4466 109.506 13.8889 109.5 14.3313 109.585 14.7701 109.756 15.1775 109.921 15.5476 110.166 15.8763 110.471 16.1403 110.8 16.4247 111.163 16.6681 111.549 16.8654 112.003 17.0802 112.475 17.2529 112.96 17.3814 113.103 17.4139 113.246 17.4525 113.395 17.4931 113.544 17.5337 113.689 17.5723 113.836 17.6068 114.097 17.6703 114.35 17.7644 114.588 17.8871 114.789 17.9837 114.967 18.1222 115.11 18.2934 115.236 18.4796 115.301 18.7005 115.297 18.9256 115.293 19.1507 115.22 19.3691 115.088 19.5507 114.941 19.7399 114.761 19.8997 114.556 20.0219 114.346 20.1449 114.12 20.2379 113.885 20.2982 113.487 20.3886 113.074 20.3886 112.676 20.2982 112.467 20.2437 112.264 20.1675 112.072 20.0707 111.876 19.9722 111.694 19.8494 111.529 19.7051 111.379 19.5365 111.249 19.3511 111.14 19.1526 111.089 19.0343 111.013 18.9288 110.916 18.8438 110.84 18.7794 110.746 18.7391 110.647 18.7279 110.547 18.7167 110.448 18.7351 110.358 18.7809L109.552 19.1647C109.484 19.1937 109.422 19.2351 109.369 19.2866 109.325 19.3306 109.29 19.3822 109.264 19.439 109.233 19.5198 109.226 19.6081 109.244 19.6929 109.252 19.7782 109.273 19.8618 109.307 19.9407 109.446 20.3091 109.644 20.6521 109.893 20.9563 110.169 21.2881 110.506 21.5639 110.884 21.7687 111.238 21.9816 111.623 22.1359 112.025 22.2258 112.949 22.4464 113.914 22.4155 114.822 22.1364 115.301 22.0015 115.75 21.7723 116.141 21.4621 116.519 21.1747 116.823 20.7999 117.026 20.3692 117.226 19.9404 117.33 19.4727 117.331 18.9991 117.333 18.5254 117.232 18.0572 117.034 17.6271z" fill="#fff"/></g><defs><clipPath id="clip0"><path d="M0 0h117.188v25H0z" fill="#fff" transform="translate(0.234375 0.5)"/></clipPath></defs></svg>