<svg width="93" height="26" viewBox="0 0 93 26" fill="none" xmlns="http://www.w3.org/2000/svg"><g clip-path="url(#clip0)"><path d="M22.7435 6.75138C22.7433 6.75094 22.7429 6.75013 22.7425 6.74929 22.7414 6.74785 22.7402 6.74599 22.7392 6.74455 22.7135 6.70169 22.6862 6.66026 22.6569 6.61987 22.6493 6.60936 22.6412 6.59946 22.6331 6.58895 22.61 6.55866 22.5862 6.52919 22.561 6.50054 22.5468 6.48426 22.5316 6.46839 22.517 6.45273 22.4965 6.43171 22.4759 6.41089 22.4543 6.39049 22.4345 6.37194 22.414 6.35359 22.3936 6.33628 22.3746 6.32041 22.3558 6.30496 22.3363 6.28971 22.3128 6.27116 22.2884 6.25364 22.2638 6.23633 22.2451 6.22355 22.2268 6.21098 22.2076 6.19861 22.1813 6.18213 22.1548 6.16646 22.1278 6.15142 22.1085 6.14049 22.0891 6.12998 22.0693 6.11989 22.0412 6.10566 22.0127 6.09206 21.9837 6.0797 21.9641 6.07104 21.9445 6.06239 21.9242 6.05435 21.8932 6.04219 21.8616 6.03127 21.8299 6.02076 21.8117 6.01499 21.7938 6.00901 21.7754 6.00386 21.7386 5.99314 21.7012 5.98366 21.6636 5.97562 21.6504 5.97294 21.6373 5.96964 21.6241 5.96717 21.5776 5.9581 21.5303 5.9513 21.4834 5.94615 21.4784 5.94574 21.474 5.94491 21.4693 5.9445 21.1334 5.91091 20.7843 5.97479 20.4695 6.15266L11.6933 11.1168 5.41689 7.56644 11.6985 4.013 15.8865 6.38039C16.6824 6.82988 17.7002 6.56319 18.1599 5.78354 18.6195 5.00369 18.3467 4.0062 17.5507 3.55609L12.531.718407C12.0161.427198 11.3816.427198 10.8668.718407L1.29621 6.13184C1.03393 6.27054.805337 6.47808.645363 6.74929.185489 7.52938.458106 8.52644 1.25405 8.97631L10.8616 14.4114C10.863 14.4122 10.8643 14.4124 10.8655 14.4132 10.9159 14.4415 10.9682 14.4656 11.0211 14.4883 11.0358 14.4947 11.0499 14.5029 11.0645 14.5087 11.0964 14.5214 11.1295 14.5303 11.1619 14.5408 11.3358 14.5983 11.5143 14.6301 11.692 14.6301 11.6925 14.6301 11.6931 14.6301 11.6937 14.6301 11.6939 14.6301 11.6945 14.6301 11.6952 14.6301 11.8769 14.6301 12.0595 14.5973 12.2366 14.5371 12.265 14.5274 12.2941 14.5202 12.322 14.5089 12.3388 14.5023 12.3549 14.4928 12.3716 14.4856 12.4225 14.4636 12.4729 14.4404 12.5213 14.4132 12.5227 14.4124 12.5242 14.4122 12.5256 14.4114l7.1143-4.0238V17.4943L11.6958 21.9874 3.75267 17.4943V13.0009C3.75267 12.1005 3.00736 11.3707 2.08864 11.3707 1.16952 11.3707.424417 12.1005.424417 13.0009V18.4356C.424417 19.018.741264 19.5559 1.25632 19.8471L10.8639 25.2819C11.121 25.4272 11.4085 25.5 11.6958 25.5 11.9831 25.5 12.2706 25.4272 12.5279 25.2819L22.1358 19.8471C22.6509 19.5559 22.9678 19.018 22.9678 18.4356V7.56644C22.9678 7.26925 22.8855 6.99144 22.7435 6.75138z" fill="#fff"/><path fill-rule="evenodd" clip-rule="evenodd" d="M31.5983 15.8739C32.1536 16.2338 32.7175 16.5007 33.2901 16.6748 33.8628 16.849 34.4267 16.936 34.982 16.936 35.5373 16.936 35.9855 16.8083 36.3268 16.553 36.6681 16.2976 36.8387 15.9668 36.8387 15.5605 36.8387 15.2239 36.7028 14.9598 36.4309 14.7683 36.159 14.5768 35.8178 14.4056 35.4071 14.2547 34.9964 14.1038 34.554 13.95 34.0796 13.7933 33.6054 13.6367 33.1629 13.4277 32.7523 13.1665 32.3416 12.9053 32.0003 12.56 31.7285 12.1306 31.4566 11.7011 31.3207 11.1382 31.3207 10.4417 31.3207 9.90778 31.4306 9.42028 31.6504 8.97922 31.8702 8.53816 32.1767 8.15797 32.57 7.83878 32.9634 7.5196 33.4348 7.27291 33.9842 7.09885 34.5337 6.92472 35.1381 6.83766 35.7975 6.83766 36.3528 6.83766 36.9052 6.88991 37.4546 6.99435 38.0042 7.09885 38.5565 7.26135 39.1118 7.48185V10.0238C38.5912 9.72209 38.0707 9.49866 37.5501 9.35353 37.0295 9.20847 36.5148 9.13591 36.0057 9.13591 35.4736 9.13591 35.0427 9.25197 34.713 9.4841 34.3834 9.71628 34.2185 10.0238 34.2185 10.4069 34.2185 10.7319 34.3544 10.9873 34.6263 11.173 34.8981 11.3587 35.2365 11.5241 35.6413 11.6692 36.0462 11.8143 36.4887 11.9652 36.9688 12.1219 37.4488 12.2786 37.8913 12.4904 38.2962 12.7574 38.7011 13.0243 39.0395 13.3755 39.3113 13.8107 39.5832 14.246 39.7191 14.8177 39.7191 15.5257 39.7191 16.0713 39.6063 16.5733 39.3807 17.0318 39.1552 17.4903 38.8428 17.882 38.4437 18.207 38.0446 18.532 37.5674 18.7845 37.0122 18.9644 36.4569 19.1443 35.8496 19.2342 35.1902 19.2342 33.9756 19.2342 32.7782 18.9731 31.5983 18.4508V15.8739zM40.5624 6.50686H43.3908V10.9292C44.1427 10.3837 44.9352 10.1109 45.768 10.1109 46.2192 10.1109 46.6356 10.1893 47.0174 10.346 47.3991 10.5027 47.7288 10.7232 48.0064 11.0076 48.2841 11.292 48.501 11.6315 48.6572 12.0261 48.8133 12.4208 48.8914 12.8502 48.8914 13.3145V19.0253H46.063V13.8368C46.063 13.477 45.9502 13.181 45.7247 12.9489 45.4991 12.7168 45.2128 12.6007 44.8657 12.6007 44.3452 12.6007 43.8535 12.8328 43.3908 13.2971V19.0253H40.5624V6.50686zM50.0471 10.3198H52.8754v8.7055H50.0471V10.3198zM49.9082 8.00422C49.9082 7.53991 50.0529 7.1656 50.3421 6.88122 50.6313 6.59681 51.0072 6.45462 51.4699 6.45462 51.9095 6.45462 52.2768 6.59681 52.5718 6.88122 52.8668 7.1656 53.0143 7.53991 53.0143 8.00422 53.0143 8.44528 52.8668 8.81091 52.5718 9.10109 52.2768 9.39128 51.9095 9.53635 51.4699 9.53635 51.0072 9.53635 50.6313 9.39128 50.3421 9.10109 50.0529 8.81091 49.9082 8.44528 49.9082 8.00422zM60.0176 14.6726C60.0176 14.0342 59.8585 13.5205 59.5404 13.1317 59.2223 12.7428 58.8087 12.5485 58.2997 12.5485 57.7907 12.5485 57.3338 12.7516 56.9289 13.1578V16.1873C57.3338 16.5936 57.7907 16.7967 58.2997 16.7967 58.8087 16.7967 59.2223 16.5994 59.5404 16.2047 59.8585 15.8101 60.0176 15.2994 60.0176 14.6726zM54.1005 10.3198H56.9289V10.79C57.5883 10.3373 58.265 10.1109 58.9591 10.1109 59.5375 10.1109 60.0696 10.2241 60.5555 10.4504 61.0414 10.6768 61.4578 10.9902 61.8048 11.3906 62.1519 11.7911 62.4208 12.2698 62.6117 12.827 62.8029 13.3842 62.8982 13.9993 62.8982 14.6726 62.8982 15.3458 62.8029 15.961 62.6117 16.5182 62.4208 17.0753 62.1519 17.5541 61.8048 17.9545 61.4578 18.355 61.0414 18.6684 60.5555 18.8947 60.0696 19.1211 59.5375 19.2342 58.9591 19.2342 58.265 19.2342 57.5883 19.0079 56.9289 18.5552V22.8383H54.1005V10.3198zM66.6742 16.7967H68.5304C68.9701 16.7967 69.3314 16.6662 69.6148 16.405 69.8982 16.1438 70.0402 15.8101 70.0402 15.4038 70.0402 14.9976 69.8982 14.6639 69.6148 14.4027 69.3314 14.1415 68.9701 14.011 68.5304 14.011H66.6742V16.7967zM66.6742 11.852H68.2874C68.6923 11.852 69.028 11.7302 69.294 11.4864 69.56 11.2427 69.6933 10.935 69.6933 10.5636 69.6933 10.1805 69.56 9.8701 69.294 9.6321 69.028 9.39416 68.6923 9.27522 68.2874 9.27522H66.6742V11.852zM63.9148 7.0466H68.8256C69.3576 7.0466 69.8434 7.12785 70.2832 7.29035 70.7229 7.45285 71.1041 7.67922 71.428 7.96935 71.7519 8.25953 72.0036 8.60197 72.183 8.99659 72.3624 9.39128 72.4521 9.82072 72.4521 10.285 72.4521 10.877 72.3132 11.4052 72.0354 11.8694 71.7582 12.3337 71.3763 12.6762 70.8905 12.8967 71.5152 13.1288 71.998 13.4915 72.3393 13.9848 72.6807 14.4782 72.8513 15.044 72.8513 15.6824 72.8513 16.1699 72.7585 16.6197 72.5735 17.0318 72.3885 17.4438 72.1313 17.7978 71.8011 18.0938 71.4716 18.3898 71.0786 18.619 70.6214 18.7815 70.1642 18.9441 69.664 19.0253 69.1202 19.0253H63.9148V7.0466zM73.1914 14.6726C73.1914 13.9993 73.3067 13.3842 73.5384 12.827 73.7695 12.2698 74.0934 11.7911 74.5101 11.3906 74.9268 10.9902 75.4208 10.6768 75.9938 10.4504 76.5662 10.2241 77.1941 10.1109 77.8762 10.1109 78.5589 10.1109 79.1867 10.2241 79.7592 10.4504 80.3316 10.6768 80.8231 10.9902 81.2342 11.3906 81.6447 11.7911 81.9654 12.2698 82.1972 12.827 82.4282 13.3842 82.5441 13.9993 82.5441 14.6726 82.5441 15.3342 82.4282 15.9465 82.1972 16.5094 81.9654 17.0724 81.6447 17.5541 81.2342 17.9545 80.8231 18.355 80.3316 18.6684 79.7592 18.8947 79.1867 19.1211 78.5589 19.2342 77.8762 19.2342 77.1941 19.2342 76.5662 19.1211 75.9938 18.8947 75.4208 18.6684 74.9268 18.355 74.5101 17.9545 74.0934 17.5541 73.7695 17.0724 73.5384 16.5094 73.3067 15.9465 73.1914 15.3342 73.1914 14.6726zM76.0891 14.6726C76.0891 15.3342 76.2542 15.8652 76.5837 16.2657 76.9132 16.6662 77.3442 16.8663 77.8762 16.8663 78.3969 16.8663 78.8248 16.6662 79.1606 16.2657 79.4957 15.8652 79.6639 15.3342 79.6639 14.6726 79.6639 14.011 79.4957 13.4799 79.1606 13.0795 78.8248 12.679 78.3969 12.4788 77.8762 12.4788 77.3442 12.4788 76.9132 12.679 76.5837 13.0795 76.2542 13.4799 76.0891 14.011 76.0891 14.6726zM89.148 14.6726C89.148 14.0342 88.9891 13.5205 88.6708 13.1317 88.3532 12.7428 87.9396 12.5485 87.4307 12.5485 86.9211 12.5485 86.4646 12.7516 86.0597 13.1578V16.1873C86.4646 16.5936 86.9211 16.7967 87.4307 16.7967 87.9396 16.7967 88.3532 16.5994 88.6708 16.2047 88.9891 15.8101 89.148 15.2994 89.148 14.6726zM83.2312 6.50686H86.0597V10.79C86.7187 10.3373 87.3958 10.1109 88.0897 10.1109 88.6683 10.1109 89.2003 10.2241 89.6861 10.4504 90.172 10.6768 90.5887 10.9902 90.9357 11.3906 91.2826 11.7911 91.5517 12.2698 91.7423 12.827 91.9335 13.3842 92.0288 13.9993 92.0288 14.6726 92.0288 15.3458 91.9335 15.961 91.7423 16.5182 91.5517 17.0753 91.2826 17.5541 90.9357 17.9545 90.5887 18.355 90.172 18.6684 89.6861 18.8947 89.2003 19.1211 88.6683 19.2342 88.0897 19.2342 87.3958 19.2342 86.7187 19.0079 86.0597 18.5552V19.0253H83.2312V6.50686z" fill="#fff"/></g><defs><clipPath id="clip0"><path d="M0 0h92.1875v25H0z" fill="#fff" transform="translate(0.421875 0.5)"/></clipPath></defs></svg>