<svg width="106" height="26" viewBox="0 0 106 26" fill="none" xmlns="http://www.w3.org/2000/svg"><g clip-path="url(#clip0)"><path d="M96.7535 17.828C92.0941 17.828 88.3033 14.0425 88.3033 9.38962V.951294H105.203V9.38962C105.203 14.042 101.412 17.828 96.7535 17.828zM89.8395 2.48553V9.38962C89.8395 13.1961 92.9407 16.2937 96.7535 16.2937 100.565 16.2937 103.667 13.1966 103.667 9.38962V2.48553H89.8395z" fill="#fff"/><path d="M100.594 6.06531H92.9126V7.59955H93.9625L93.4308 11.8509H94.9791L95.5116 7.59955H97.9953L98.5278 11.8509H100.076L99.5444 7.59955H100.594V6.06531z" fill="#fff"/><path d="M9.67425 3.48678C14.2069 3.48678 16.6246 5.59893 16.6246 8.61627 16.6246 11.0307 14.8112 12.841 12.394 13.5054V13.5657C16.1713 14.5011 17.531 16.7038 17.531 19.0276 17.531 22.3467 15.1134 24.6102 10.5812 24.6102H.609375V24.0068C2.42275 24.0068 2.42275 24.0068 2.42275 22.045V6.05152C2.42275 4.08974 2.42275 4.08974.609375 4.08974V3.48627H9.67425V3.48678zM7.86136 13.4445C10.5812 13.4445 11.6381 11.6342 11.6381 8.76711 11.6381 6.20188 10.5806 4.08974 8.76779 4.08974H7.25707V13.4445H7.86136zM7.25707 14.048V24.0068H9.3721C11.7892 24.0068 12.5451 21.5924 12.5451 18.8768 12.5451 16.1612 11.1855 14.0485 8.46564 14.0485H7.25707V14.048z" fill="#fff"/><path d="M18.7375 17.2169C18.7375 12.0869 22.9681 9.21994 26.7449 9.21994 30.2201 9.21994 33.3624 10.7286 32.4559 15.8586H23.512C23.512 19.9325 25.8385 21.4412 28.105 21.4412 30.8248 21.4412 32.0335 19.9325 32.6378 18.8759H32.9398C32.3356 21.8933 30.2201 24.9112 26.4433 24.9112 21.4574 24.9116 18.7375 21.2908 18.7375 17.2169zM23.512 15.2551h4.442C28.4676 13.2033 28.8906 9.82335 26.5943 9.82335 24.8716 9.82335 23.6328 11.423 23.512 15.2551z" fill="#fff"/><path d="M45.3273 13.4445C45.3273 12.0867 44.4208 11.6342 43.5144 11.6342 42.5778 11.6342 41.5505 12.0867 40.493 12.992V22.0445C40.493 24.0063 40.493 24.0063 42.3058 24.0063V24.6098H33.8448V24.0063C35.6576 24.0063 35.6576 24.0063 35.6576 22.0445V12.5393C35.6576 11.0307 35.6576 11.0307 34.1469 11.0307V10.578L40.3414 9.22021H40.5831L40.4924 12.3885H40.5529C41.7011 10.4272 43.877 9.22021 46.0826 9.22021 48.107 9.22021 50.1621 10.4272 50.1621 13.7468v8.2987C50.1621 24.0073 50.1621 24.0073 51.9749 24.0073V24.6107H44.1187V24.0073C45.3273 24.0073 45.3273 24.0073 45.3273 22.0455v-8.601z" fill="#fff"/><path d="M61.9447 21.4417C64.6645 21.4417 65.8731 19.933 66.4774 18.8765H66.78C66.1752 21.8938 64.0602 24.9116 60.2829 24.9116 55.297 24.9116 52.5777 21.2908 52.5777 17.2169 52.5777 12.0869 56.8083 9.21994 60.5851 9.21994 64.3624 9.21994 66.357 11.061 66.357 12.9921 66.357 14.0477 65.8736 15.1043 64.0607 15.1043 62.55 15.1043 62.2171 14.1689 62.2473 13.5352 62.399 11.3321 62.2473 9.82335 60.4345 9.82335 58.3195 9.82335 57.3521 12.63 57.3521 16.1302 57.3521 20.0839 59.6786 21.4417 61.9447 21.4417z" fill="#fff"/><path d="M79.1675 13.4445C79.1675 12.0867 78.261 11.6341 77.3544 11.6341 76.4177 11.6341 75.3904 12.0867 74.3329 12.9919v9.0526C74.3329 24.0062 74.3329 24.0062 76.1463 24.0062V24.6097H67.6852V24.0062C69.4985 24.0062 69.4985 24.0062 69.4985 22.0445V4.69371C69.4985 3.18452 69.4985 3.18452 67.9879 3.18452V2.73192L74.0917 1.37411H74.3334V12.3884H74.3938C75.542 10.4271 77.717 9.22024 79.9238 9.22024 81.9485 9.22024 84.0028 10.4271 84.0028 13.7468v8.2987C84.0028 24.0073 84.0028 24.0073 85.8167 24.0073V24.6108H77.959V24.0073C79.1675 24.0073 79.1675 24.0073 79.1675 22.0455v-8.601z" fill="#fff"/></g><defs><clipPath id="clip0"><path d="M0 0h104.688v25H0z" fill="#fff" transform="translate(0.609375 0.5)"/></clipPath></defs></svg>