<svg width="56" height="26" viewBox="0 0 56 26" fill="none" xmlns="http://www.w3.org/2000/svg"><g clip-path="url(#clip0)"><path fill-rule="evenodd" clip-rule="evenodd" d="M9.98385 11.3476C9.80467 11.1879 9.55443 11.1346 9.32539 11.2069L3.09369 13.1733 11.9981 4.65569C12.2723 4.39284 12.2816 3.9572 12.019 3.68275 12.0062 3.66961 11.9935 3.65685 11.9796 3.64487L8.6554.674649C8.37158.421462 7.93674.446587 7.68377.730312 7.65478.763169 7.62892.798344 7.60655.835839L.371155 12.9861C.2414 13.2041.284266 13.484.473878 13.6529L1.8838 14.9146C2.0572 15.0693 2.29701 15.1253 2.521 15.0631L7.56946 13.656 1.75869 22.7866C1.47832 23.2277 2.0599 23.7054 2.43719 23.3436L12.1445 14.0379C12.355 13.835 12.3612 13.4995 12.158 13.2888 12.1491 13.2796 12.1398 13.2706 12.1302 13.2618L9.98385 11.3476z" fill="#fff"/><path fill-rule="evenodd" clip-rule="evenodd" d="M55.3035 10.0454 54.3394 9.18581C54.2086 9.069 54.0079 9.08031 53.891 9.21113 53.8649 9.24075 53.8438 9.275 53.8302 9.31244L51.8477 14.6605C50.898 17.2226 49.7723 18.0997 49.0663 18.0997 48.8407 18.0997 48.5196 17.9357 48.5196 17.3892 48.5196 17.2035 48.5523 16.8109 48.7822 16.1904L50.6708 11.099C50.8088 10.7274 50.7047 10.3095 50.409 10.0458L49.4446 9.18581C49.3137 9.069 49.113 9.08031 48.9961 9.21113 48.97 9.24075 48.949 9.275 48.9354 9.31244L46.9532 14.6605C46.004 17.2226 44.8779 18.0997 44.1726 18.0997 43.9466 18.0997 43.6255 17.9357 43.6255 17.3892 43.6255 17.2035 43.6587 16.8109 43.8878 16.1904L48.0123 5.05726C48.1502 4.68607 48.0462 4.26815 47.7508 4.00408L46.786 3.14408C46.6555 3.02724 46.4548 3.03892 46.3379 3.1694 46.3114 3.199 46.2907 3.23367 46.2767 3.27067L42.0556 14.6605C41.7556 15.4694 41.6153 16.2921 41.6153 16.7711 41.6153 18.3914 42.7091 19.3215 43.8874 19.3215 44.7707 19.3215 45.746 18.7564 46.6294 17.5929 46.9318 18.6964 47.8244 19.3215 48.7819 19.3215 49.3153 19.3215 49.8834 19.1131 50.4449 18.6952L49.0565 22.4382C47.6211 21.7581 45.9826 21.6413 44.4653 22.1118 44.2802 22.1683 44.3184 22.4382 44.5093 22.4569 46.4845 22.6427 48.1097 23.4964 49.3094 25.1007 49.5249 25.3866 49.9313 25.4439 50.2169 25.2285 50.3159 25.1541 50.3915 25.0532 50.4343 24.9372L55.5642 11.1006C55.7029 10.7286 55.5996 10.3099 55.3035 10.0454z" fill="#fff"/><path fill-rule="evenodd" clip-rule="evenodd" d="M34.6135 18.0916C34.2268 18.0916 33.9384 17.7113 33.9384 17.145 33.9384 16.9557 33.9974 16.5048 34.2291 15.873 35.5547 12.415 37.3583 10.5382 38.1672 10.5382 38.7015 10.5382 38.783 11.0942 38.783 11.7566 38.783 14.4558 36.3755 18.0896 34.6135 18.0896V18.0916zM38.905 8.92447C37.9508 8.92447 37.0636 9.47253 36.2704 10.3092L38.2955 4.80048C38.4348 4.42186 38.3297 3.99601 38.0315 3.72732L37.0554 2.85061C36.9235 2.73155 36.7205 2.74306 36.6029 2.87641 36.5761 2.90657 36.5553 2.9415 36.5411 2.9796L32.2788 14.5852C31.9759 15.4098 31.8346 16.2477 31.8346 16.7358 31.8346 18.3075 32.9351 19.3346 34.431 19.3346 37.9607 19.3346 41.1457 15.1495 41.1457 11.774 41.1437 10.121 40.3478 8.92447 38.905 8.92447z" fill="#fff"/><path fill-rule="evenodd" clip-rule="evenodd" d="M25.5955 18.0916C25.2083 18.0916 24.9195 17.7113 24.9195 17.145 24.9195 16.9557 24.9786 16.5048 25.2106 15.873 26.5379 12.415 28.3438 10.5382 29.1538 10.5382 29.6892 10.5382 29.7707 11.0942 29.7707 11.7566 29.77 14.4558 27.3616 18.0896 25.5951 18.0896L25.5955 18.0916zM27.2549 10.3092 29.2822 4.80048C29.4217 4.42186 29.3169 3.99601 29.0179 3.72732L28.0408 2.85061C27.9085 2.73155 27.7056 2.74306 27.5874 2.87641 27.5606 2.90657 27.5398 2.9415 27.5259 2.9796L23.2578 14.5852C22.2965 17.1954 21.1591 18.0896 20.4453 18.0896 20.2168 18.0896 19.8925 17.9229 19.8925 17.3657 19.8925 17.1763 19.9256 16.7763 20.158 16.1441L22.066 10.9561C22.2059 10.5778 22.1007 10.1516 21.8021 9.88253L20.8266 9.00622C20.6947 8.88753 20.4914 8.89903 20.3736 9.03203 20.3468 9.06259 20.3259 9.09709 20.3117 9.13559L18.3073 14.5852C17.3475 17.1958 16.209 18.0896 15.4956 18.0896 15.267 18.0896 14.9424 17.9229 14.9424 17.3657 14.9424 17.1763 14.9755 16.7763 15.2076 16.1441L17.1155 10.9561C17.255 10.5778 17.1498 10.152 16.8504 9.88291L15.8757 9.00659C15.7437 8.88797 15.5409 8.89947 15.4226 9.03241 15.3958 9.06259 15.375 9.09791 15.3608 9.13597L13.3571 14.5852C13.0542 15.4098 12.912 16.2477 12.912 16.7358 12.912 18.3873 14.0174 19.3346 15.2087 19.3346 16.1018 19.3346 17.0879 18.7587 17.9811 17.5737 18.2868 18.698 19.1893 19.3346 20.1569 19.3346 21.0528 19.3346 22.0435 18.7555 22.9363 17.5633 23.2562 18.6535 24.1977 19.3346 25.4092 19.3346 28.9442 19.3346 32.1349 15.1495 32.1349 11.774 32.1341 10.121 31.3371 8.92447 29.8929 8.92447 28.9371 8.92447 28.0488 9.47253 27.2549 10.3092z" fill="#fff"/></g><defs><clipPath id="clip0"><path d="M0 0h55.4688v25H0z" fill="#fff" transform="translate(0.296875 0.5)"/></clipPath></defs></svg>