<svg width="14" height="12" viewBox="0 0 14 12" fill="none" xmlns="http://www.w3.org/2000/svg"><path d="M4.403 12C9.6859 12 12.5755 7.38274 12.5755 3.3791 12.5755 3.24766 12.5755 3.11696 12.5671 2.987 13.1292 2.55873 13.6143 2.02707 14 1.41862 13.4764 1.66378 12.9199 1.82475 12.3508 1.89564 12.95 1.51683 13.3987.921677 13.6136.219452 13.0494.57241 12.4327.821254 11.7894.954905 10.7016-.264943 8.8823-.324016 7.7252.823469 6.9797 1.56335 6.6626 2.66653 6.8943 3.71876 4.585 3.59619 2.4332 2.44575.9744.553212.2121 1.93773.602 3.70843 1.8641 4.59747 1.407 4.58344.9597 4.45348.56 4.21867V4.25706C.5607 5.69917 1.5246 6.94117 2.8644 7.22694 2.4416 7.34877 1.9978 7.3665 1.568 7.27862 1.9439 8.51324 3.0226 9.35872 4.2511 9.38309 3.234 10.2263 1.9775 10.6842.6839 10.6827.4557 10.6819.2275 10.6679.0 10.6391 1.3139 11.5282 2.842 12 4.403 11.9978" fill="#fff"/></svg>