<svg width="24" height="24" viewBox="0 0 24 24" fill="none" xmlns="http://www.w3.org/2000/svg"><path opacity=".3" fill-rule="evenodd" clip-rule="evenodd" d="M7.25619 18.9292 5.97889 20.4681C3.47693 18.3916 2 15.3153 2 12 2 8.68921 3.47282 5.61675 5.96885 3.54016L7.24797 5.07765C5.20393 6.77819 4 9.28973 4 12 4 14.714 5.2073 17.2287 7.25619 18.9292zm9.48761.0L18.0211 20.4681C20.5231 18.3916 22 15.3153 22 12 22 8.68921 20.5272 5.61675 18.0311 3.54016L16.752 5.07765C18.7961 6.77819 20 9.28973 20 12 20 14.714 18.7927 17.2287 16.7438 18.9292zM14.1785 15.8599 15.4509 17.4029C17.0529 16.082 18 14.1173 18 12 18 9.88957 17.0591 7.93072 15.4661 6.60961L14.1894 8.14908C15.329 9.09417 16 10.4912 16 12 16 13.5137 15.3245 14.9149 14.1785 15.8599zM8.5491 17.4029 9.8215 15.8599C8.6755 14.9149 8 13.5137 8 12 8 10.4912 8.67104 9.09417 9.81062 8.14908L8.53389 6.60961C6.94091 7.93072 6 9.88957 6 12 6 14.1173 6.94714 16.082 8.5491 17.4029z" fill="#99efd0"/><path fill-rule="evenodd" clip-rule="evenodd" d="M12 14C13.1046 14 14 13.1046 14 12 14 10.8954 13.1046 10 12 10 10.8954 10 10 10.8954 10 12 10 13.1046 10.8954 14 12 14z" fill="#99efd0"/></svg>