<svg width="24" height="24" viewBox="0 0 24 24" fill="none" xmlns="http://www.w3.org/2000/svg"><path opacity=".3" fill-rule="evenodd" clip-rule="evenodd" d="M12 17C16.4183 17 20 13.4183 20 9 20 4.58172 16.4183 1 12 1 7.58172 1 4 4.58172 4 9c0 4.4183 3.58172 8 8 8z" fill="#99efd0"/><path opacity=".3" fill-rule="evenodd" clip-rule="evenodd" d="M6.53816 9 10.568 19.3624 11.9759 18.8149 13.3745 19.3674 17.4703 9H6.53816zM9.46185 11H14.5297L11.9758 17.4645 9.46185 11z" fill="#99efd0"/><path opacity=".3" d="M10 22h4C14 23.1046 13.1046 24 12 24 10.8954 24 10 23.1046 10 22z" fill="#99efd0"/><path fill-rule="evenodd" clip-rule="evenodd" d="M8 17C8 16.4477 8.44772 16 9 16h6C15.5523 16 16 16.4477 16 17 16 17.5523 15.5523 18 15 18 15.5523 18 16 18.4477 16 19 16 19.5523 15.5523 20 15 20 15.5523 20 16 20.4477 16 21 16 21.5523 15.5523 22 15 22H9C8.44772 22 8 21.5523 8 21 8 20.4477 8.44772 20 9 20 8.44772 20 8 19.5523 8 19 8 18.4477 8.44772 18 9 18 8.44772 18 8 17.5523 8 17z" fill="#99efd0"/></svg>